<?xml version="1.0" encoding="UTF-8"?>
<svg width="300px" height="200px" viewBox="0 0 300 200" version="1.1" xmlns="http://www.w3.org/2000/svg" xmlns:xlink="http://www.w3.org/1999/xlink">
    <!-- Generator: Sketch 55.2 (78181) - https://sketchapp.com -->
    <title>michelle-akanji</title>
    <desc>Created with Sketch.</desc>
    <g id="michelle-akanji" stroke="none" stroke-width="1" fill="none" fill-rule="evenodd">
        <path d="M54.9245192,156.033526 L23.7754808,156.033526 L17.8471154,171.25 L8,171.25 L34.2254808,106.65 L44.575,106.65 L70.7,171.25 L60.8528846,171.25 L54.9245192,156.033526 Z M51.7,149.4 L38.4,116.15 L25.1,149.4 L51.7,149.4 Z M108.878554,171.25 L88.2074699,148.419189 L88.2074699,171.25 L79.25,171.25 L79.25,102.85 L88.2074699,102.85 L88.2074699,142.595946 L108.583253,120.504595 L119.509398,120.504595 L95.2946988,145.738649 L120.1,171.25 L108.878554,171.25 Z M150.253957,119 C155.630483,119 160.183659,120.259905 163.913624,122.779751 C167.643589,125.299598 170.247804,128.669843 171.726349,132.890586 L171.726349,119.661456 L180.9,119.661456 L180.9,171.538544 L171.726349,171.538544 L171.726349,158.309414 C170.247804,162.530157 167.643589,165.900402 163.913624,168.420249 C160.183659,170.940095 155.630483,172.2 150.253957,172.2 C145.347877,172.2 140.979516,171.129081 137.148741,168.987211 C133.317966,166.845342 130.310518,163.774324 128.126304,159.774067 C125.94209,155.773811 124.85,151.064918 124.85,145.647247 C124.85,140.229576 125.94209,135.504934 128.126304,131.473179 C130.310518,127.441424 133.317966,124.354658 137.148741,122.212789 C140.979516,120.070919 145.347877,119 150.253957,119 Z M153.252957,126.6 C147.818521,126.6 143.467803,128.243578 140.200672,131.530784 C136.933541,134.817989 135.3,139.349349 135.3,145.125 C135.3,150.900651 136.933541,155.432011 140.200672,158.719216 C143.467803,162.006422 147.818521,163.65 153.252957,163.65 C156.746523,163.65 159.868042,162.881973 162.617608,161.345896 C165.367173,159.809818 167.518272,157.643982 169.070968,154.848321 C170.623664,152.05266 171.4,148.811586 171.4,145.125 C171.4,141.438414 170.623664,138.181979 169.070968,135.355597 C167.518272,132.529215 165.367173,130.363378 162.617608,128.858022 C159.868042,127.352667 156.746523,126.6 153.252957,126.6 Z M223.937078,119 C230.101721,119 235.078311,120.954461 238.866998,124.863441 C242.655685,128.772421 244.55,134.413344 244.55,141.78638 L244.55,172.2 L235.784692,172.2 L235.784692,142.549104 C235.784692,137.33713 234.436196,133.332869 231.739165,130.536201 C229.042134,127.739532 225.381932,126.341219 220.758449,126.341219 C215.942322,126.341219 212.089478,127.882541 209.199801,130.965233 C206.310125,134.047925 204.865308,138.544773 204.865308,144.455914 L204.865308,172.2 L196.1,172.2 L196.1,119.858065 L204.865308,119.858065 L204.865308,132.25233 C206.213824,127.993766 208.605798,124.720442 212.041302,122.432258 C215.476806,120.144075 219.442025,119 223.937078,119 Z M263.641935,110.45 C261.925798,110.45 260.531457,109.924112 259.458871,108.872321 C258.386285,107.82053 257.85,106.446437 257.85,104.75 C257.85,103.053563 258.386285,101.67947 259.458871,100.627679 C260.531457,99.5758876 261.925798,99.05 263.641935,99.05 C265.296782,99.05 266.645156,99.5758876 267.687097,100.627679 C268.729037,101.67947 269.25,103.053563 269.25,104.75 C269.25,106.446437 268.729037,107.82053 267.687097,108.872321 C266.645156,109.924112 265.296782,110.45 263.641935,110.45 Z M247.4,187.484549 L251.028141,187.484549 C253.319609,187.484549 254.990447,186.983524 256.040704,185.981459 C257.09096,184.979393 257.61608,183.25712 257.61608,180.814586 L257.61608,119 L266.4,119 L266.4,181.096415 C266.4,190.365518 261.626178,195 252.078392,195 L247.4,195 L247.4,187.484549 Z M281.6,104.75 C281.6,103.053563 282.120963,101.67947 283.162903,100.627679 C284.204844,99.5758876 285.583862,99.05 287.3,99.05 C289.016138,99.05 290.395156,99.5758876 291.437097,100.627679 C292.479037,101.67947 293,103.053563 293,104.75 C293,106.446437 292.479037,107.82053 291.437097,108.872321 C290.395156,109.924112 289.016138,110.45 287.3,110.45 C285.583862,110.45 284.204844,109.924112 283.162903,108.872321 C282.120963,107.82053 281.6,106.446437 281.6,104.75 Z M291.1,119.95 L291.1,172.2 L281.6,172.2 L281.6,119.95 L291.1,119.95 Z M58.591716,12.6 L58.591716,88.6 L52.0706874,88.6 L52.0706874,27.9535354 L36.2339038,88.6 L30.4294718,88.6 L14.5210285,28.1728716 L14.5210285,88.6 L8,88.6 L8,12.6 L15.8109023,12.6 L33.4391773,76.4268398 L50.7808137,12.6 L58.591716,12.6 Z M67.8668639,11.65 C67.8668639,9.67082344 68.290724,8.06771447 69.1384568,6.840625 C69.9861896,5.61353553 71.1081721,5 72.5044379,5 C73.9007037,5 75.0226862,5.61353553 75.870419,6.840625 C76.7181518,8.06771447 77.1420118,9.67082344 77.1420118,11.65 C77.1420118,13.6291766 76.7181518,15.2322855 75.870419,16.459375 C75.0226862,17.6864645 73.9007037,18.3 72.5044379,18.3 C71.1081721,18.3 69.9861896,17.6864645 69.1384568,16.459375 C68.290724,15.2322855 67.8668639,13.6291766 67.8668639,11.65 Z M76.2988166,28.75 L76.2988166,89.55 L69.5532544,89.55 L69.5532544,28.75 L76.2988166,28.75 Z M104.097163,28.75 C109.118105,28.75 113.278252,30.7973448 116.577728,34.8920959 C119.877205,38.986847 121.90946,44.4708064 122.674556,51.3441385 L115.788727,51.3441385 C115.310542,47.0300258 114.007508,43.6482509 111.879585,41.1987123 C109.751662,38.7491737 107.109729,37.5244227 103.953709,37.5244227 C101.658421,37.5244227 99.5663929,38.3287368 97.6775623,39.937389 C95.7887317,41.5460412 94.2705173,44.0138229 93.1228733,47.3408082 C91.9752294,50.6677934 91.4014161,54.780763 91.4014161,59.6798401 C91.4014161,64.5789173 91.9752294,68.6918869 93.1228733,72.0188721 C94.2705173,75.3458574 95.7887317,77.8136391 97.6775623,79.4222913 C99.5663929,81.0309435 101.658421,81.8352575 103.953709,81.8352575 C107.109729,81.8352575 109.751662,80.5922268 111.879585,78.1061279 C114.007508,75.620029 115.310542,72.2199742 115.788727,67.9058615 L122.674556,67.9058615 C121.90946,74.8523142 119.877205,80.3545534 116.577728,84.4127442 C113.278252,88.470935 109.118105,90.5 104.097163,90.5 C100.319502,90.5 96.9722576,89.2569692 94.0553294,86.7708703 C91.1384011,84.2847715 88.8551022,80.7201979 87.205364,76.0770426 C85.5556259,71.4338874 84.7307692,65.9682079 84.7307692,59.6798401 C84.7307692,53.3914724 85.5556259,47.907513 87.205364,43.2277975 C88.8551022,38.548082 91.1384011,34.9652285 94.0553294,32.4791297 C96.9722576,29.9930308 100.319502,28.75 104.097163,28.75 Z M151.938293,27.9437838 C156.551584,27.9437838 160.275798,30.207072 163.11105,34.7337162 C165.946301,39.2603605 167.363905,45.792615 167.363905,54.3306757 L167.363905,89.55 L160.804416,89.55 L160.804416,55.2139189 C160.804416,49.1783932 159.795274,44.5414126 157.77696,41.3028378 C155.758645,38.0642631 153.019545,36.445 149.559577,36.445 C145.955444,36.445 143.072181,38.2298695 140.909702,41.7996622 C138.747222,45.3694548 137.665998,50.5768577 137.665998,57.422027 L137.665998,89.55 L131.106509,89.55 L131.106509,7.85 L137.665998,7.85 L137.665998,43.2901351 C138.675155,38.358669 140.465181,34.5681214 143.036129,31.9183784 C145.607078,29.2686354 148.574436,27.9437838 151.938293,27.9437838 Z M213.739645,56.2797513 C213.739645,58.4002474 213.644549,60.2282339 213.454353,61.7637655 L182.143597,61.7637655 C182.286243,68.6370977 183.558156,73.7920195 185.959372,77.2286856 C188.360589,80.6653517 191.296686,82.383659 194.767751,82.383659 C197.905975,82.383659 200.533009,81.158908 202.648933,78.7093694 C204.764856,76.2598309 206.060543,72.9877351 206.536031,68.892984 L213.454353,68.892984 C212.978865,73.0608557 211.920919,76.789948 210.280484,80.080373 C208.640049,83.370798 206.51227,85.929979 203.897084,87.7579929 C201.281897,89.5860068 198.333913,90.5 195.053043,90.5 C191.296685,90.5 187.968315,89.2569692 185.067836,86.7708703 C182.167357,84.2847715 179.896933,80.7201979 178.256498,76.0770426 C176.616063,71.4338874 175.795858,65.9682079 175.795858,59.6798401 C175.795858,53.3914724 176.616063,47.907513 178.256498,43.2277975 C179.896933,38.548082 182.167357,34.9652285 185.067836,32.4791297 C187.968315,29.9930308 191.296685,28.75 195.053043,28.75 C198.856951,28.75 202.173433,29.9930308 205.002589,32.4791297 C207.831745,34.9652285 209.995185,38.2921639 211.492973,42.4600355 C212.990762,46.6279072 213.739645,51.234433 213.739645,56.2797513 Z M206.96916,57.25 C207.113155,52.6055323 206.63318,48.7225111 205.529221,45.6008197 C204.425262,42.4791283 202.913341,40.1569293 200.993412,38.634153 C199.073483,37.1113767 196.985592,36.35 194.729676,36.35 C191.12981,36.35 188.105967,38.1202009 185.658058,41.6606557 C183.210149,45.2011106 181.890218,50.3975067 181.698225,57.25 L206.96916,57.25 Z M228.91716,7.85 L228.91716,89.55 L222.171598,89.55 L222.171598,7.85 L228.91716,7.85 Z M245.781065,7.85 L245.781065,89.55 L239.035503,89.55 L239.035503,7.85 L245.781065,7.85 Z M293,56.2797513 C293,58.4002474 292.904904,60.2282339 292.714708,61.7637655 L261.403952,61.7637655 C261.546598,68.6370977 262.818511,73.7920195 265.219727,77.2286856 C267.620944,80.6653517 270.557041,82.383659 274.028107,82.383659 C277.16633,82.383659 279.793364,81.158908 281.909288,78.7093694 C284.025211,76.2598309 285.320898,72.9877351 285.796386,68.892984 L292.714708,68.892984 C292.23922,73.0608557 291.181274,76.789948 289.540839,80.080373 C287.900404,83.370798 285.772625,85.929979 283.157439,87.7579929 C280.542252,89.5860068 277.594268,90.5 274.313398,90.5 C270.55704,90.5 267.22867,89.2569692 264.328191,86.7708703 C261.427712,84.2847715 259.157288,80.7201979 257.516853,76.0770426 C255.876418,71.4338874 255.056213,65.9682079 255.056213,59.6798401 C255.056213,53.3914724 255.876418,47.907513 257.516853,43.2277975 C259.157288,38.548082 261.427712,34.9652285 264.328191,32.4791297 C267.22867,29.9930308 270.55704,28.75 274.313398,28.75 C278.117306,28.75 281.433788,29.9930308 284.262944,32.4791297 C287.0921,34.9652285 289.25554,38.2921639 290.753328,42.4600355 C292.251117,46.6279072 293,51.234433 293,56.2797513 Z M286.229515,57.25 C286.37351,52.6055323 285.893535,48.7225111 284.789576,45.6008197 C283.685617,42.4791283 282.173696,40.1569293 280.253767,38.634153 C278.333838,37.1113767 276.245947,36.35 273.990031,36.35 C270.390165,36.35 267.366322,38.1202009 264.918413,41.6606557 C262.470504,45.2011106 261.150573,50.3975067 260.95858,57.25 L286.229515,57.25 Z" id="Akanji" fill="#000000" fill-rule="nonzero"></path>
    </g>
</svg>