<?xml version="1.0" encoding="UTF-8"?>
<svg width="300px" height="200px" viewBox="0 0 300 200" version="1.1" xmlns="http://www.w3.org/2000/svg" xmlns:xlink="http://www.w3.org/1999/xlink">
    <!-- Generator: Sketch 55.2 (78181) - https://sketchapp.com -->
    <title>modulvisualisierung</title>
    <desc>Created with Sketch.</desc>
    <g id="modulvisualisierung" stroke="none" stroke-width="1" fill="none" fill-rule="evenodd">
        <path d="M28.9,88.6 L28.9,165.55 L26.2060907,165.55 L26.2060907,104.145455 L19.6637394,165.55 L17.265864,165.55 L10.6939093,104.367532 L10.6939093,165.55 L8,165.55 L8,88.6 L11.2267705,88.6 L18.5092068,153.224675 L25.6732295,88.6 L28.9,88.6 Z M39.8396552,103.8 C41.3833411,103.8 42.7657985,105.043031 43.987069,107.52913 C45.2083394,110.015229 46.1658011,113.598082 46.8594828,118.277798 C47.5531644,122.957513 47.9,128.441472 47.9,134.72984 C47.9,141.018208 47.5531644,146.483887 46.8594828,151.127043 C46.1658011,155.770198 45.2083394,159.334771 43.987069,161.82087 C42.7657985,164.306969 41.3833411,165.55 39.8396552,165.55 C38.2959693,165.55 36.9135119,164.306969 35.6922414,161.82087 C34.4709709,159.334771 33.5086242,155.770198 32.8051724,151.127043 C32.1017206,146.483887 31.75,141.018208 31.75,134.72984 C31.75,128.441472 32.1017206,122.957513 32.8051724,118.277798 C33.5086242,113.598082 34.4709709,110.015229 35.6922414,107.52913 C36.9135119,105.043031 38.2959693,103.8 39.8396552,103.8 Z M40.775,113.3 C39.8422995,113.3 38.9809921,114.112482 38.1910519,115.737469 C37.4011117,117.362456 36.7634587,119.855298 36.2780738,123.216067 C35.7926888,126.576836 35.55,130.731572 35.55,135.680397 C35.55,140.555359 35.7926888,144.673164 36.2780738,148.033933 C36.7634587,151.394702 37.4011117,153.887544 38.1910519,155.512531 C38.9809921,157.137518 39.8422995,157.95 40.775,157.95 C41.7077005,157.95 42.5690079,157.137518 43.3589481,155.512531 C44.1488883,153.887544 44.7865413,151.394702 45.2719262,148.033933 C45.7573112,144.673164 46,140.555359 46,135.680397 C46,130.731572 45.7573112,126.576836 45.2719262,123.216067 C44.7865413,119.855298 44.1488883,117.362456 43.3589481,115.737469 C42.5690079,114.112482 41.7077005,113.3 40.775,113.3 Z M59.0197842,103.97423 C60.5689526,103.97423 61.8808849,105.432493 62.9556205,108.349063 C64.0303561,111.265633 64.7807233,115.166486 65.2067446,120.05174 L65.2067446,83.85 L67.85,83.85 L67.85,164.784404 L65.2067446,164.784404 L65.2067446,149.47249 C64.7807233,154.357744 64.0303561,158.258598 62.9556205,161.175167 C61.8808849,164.091737 60.5689526,165.55 59.0197842,165.55 C57.606168,165.55 56.3474875,164.310476 55.243705,161.831392 C54.1399225,159.352308 53.2733695,155.797792 52.6440198,151.167738 C52.0146701,146.537683 51.7,141.087425 51.7,134.816801 C51.7,128.546176 52.0146701,123.07769 52.6440198,118.411178 C53.2733695,113.744667 54.1399225,110.171922 55.243705,107.692838 C56.3474875,105.213754 57.606168,103.97423 59.0197842,103.97423 Z M59.7469086,113.3 C58.1737825,113.3 56.914364,115.280722 55.9686156,119.242226 C55.0228671,123.20373 54.55,128.6646 54.55,135.625 C54.55,142.5854 55.0228671,148.04627 55.9686156,152.007774 C56.914364,155.969278 58.1737825,157.95 59.7469086,157.95 C60.758204,157.95 61.6618016,157.024429 62.4577285,155.173259 C63.2536554,153.322089 63.8763418,150.711978 64.3258065,147.342848 C64.7752711,143.973719 65,140.067808 65,135.625 C65,131.182192 64.7752711,127.25777 64.3258065,123.851617 C63.8763418,120.445464 63.2536554,117.835353 62.4577285,116.021206 C61.6618016,114.20706 60.758204,113.3 59.7469086,113.3 Z M85.9,104.75 L85.9,165.504032 L83.3219682,165.504032 L83.3219682,151.228495 C82.9253459,156.17147 82.2218241,159.952421 81.2113817,162.571461 C80.2009393,165.1905 79.0252552,166.5 77.6842942,166.5 C75.8900507,166.5 74.4357909,164.231429 73.3214712,159.69422 C72.2071515,155.157011 71.65,148.646398 71.65,140.162186 L71.65,104.75 L74.2280318,104.75 L74.2280318,139.166219 C74.2280318,145.215831 74.6246481,149.882077 75.4178926,153.165099 C76.2111372,156.44812 77.2876672,158.089606 78.6475149,158.089606 C80.064023,158.089606 81.1972125,156.30057 82.0471173,152.722446 C82.8970221,149.144322 83.3219682,143.924765 83.3219682,137.06362 L83.3219682,104.75 L85.9,104.75 Z M92.55,83.85 L92.55,165.55 L89.7,165.55 L89.7,83.85 L92.55,83.85 Z M103.505019,154.807559 L108.608178,104.75 L111.55,104.75 L105.096004,165.55 L101.853996,165.55 L95.4,104.75 L98.3418216,104.75 L103.505019,154.807559 Z M113.45,86.7 C113.45,84.7208234 113.623654,83.1177145 113.970968,81.890625 C114.318281,80.6635355 114.777954,80.05 115.35,80.05 C115.922046,80.05 116.381719,80.6635355 116.729032,81.890625 C117.076346,83.1177145 117.25,84.7208234 117.25,86.7 C117.25,88.6791766 117.076346,90.2822855 116.729032,91.509375 C116.381719,92.7364645 115.922046,93.35 115.35,93.35 C114.777954,93.35 114.318281,92.7364645 113.970968,91.509375 C113.623654,90.2822855 113.45,88.6791766 113.45,86.7 Z M117.25,104.75 L117.25,165.55 L114.4,165.55 L114.4,104.75 L117.25,104.75 Z M125.418182,103.8 C127.109099,103.8 128.468177,105.573147 129.495455,109.119494 C130.522732,112.665841 131.145453,117.436885 131.363636,123.432771 L128.990909,123.432771 C128.881818,119.849864 128.51364,116.906805 127.886364,114.603508 C127.259088,112.300211 126.418187,111.148579 125.363636,111.148579 C124.472723,111.148579 123.777275,112.007733 123.277273,113.726066 C122.77727,115.444399 122.527273,117.765942 122.527273,120.690764 C122.527273,122.88438 122.695453,124.657527 123.031818,126.010258 C123.368184,127.362988 123.786361,128.38666 124.286364,129.081306 C124.786366,129.775951 125.472723,130.525425 126.345455,131.329751 C127.454551,132.353439 128.349997,133.395391 129.031818,134.455639 C129.71364,135.515887 130.295452,137.215915 130.777273,139.555773 C131.259093,141.89563 131.5,145.039767 131.5,148.988277 C131.5,153.887354 131.040914,157.872365 130.122727,160.943428 C129.204541,164.014491 127.981826,165.55 126.454545,165.55 C124.672718,165.55 123.218187,163.831693 122.090909,160.395027 C120.963631,156.958361 120.300001,152.169036 120.1,146.026909 L122.5,146.026909 C122.59091,149.682937 122.98636,152.644275 123.686364,154.911012 C124.386367,157.17775 125.309085,158.311101 126.454545,158.311101 C127.309095,158.311101 127.97727,157.433668 128.459091,155.678774 C128.940911,153.923881 129.181818,151.620618 129.181818,148.768917 C129.181818,146.429059 129.009093,144.564513 128.663636,143.175222 C128.31818,141.785931 127.890912,140.725699 127.381818,139.994494 C126.872725,139.263288 126.172732,138.495534 125.281818,137.691208 C124.172722,136.66752 123.286367,135.643848 122.622727,134.62016 C121.959088,133.596472 121.395457,131.969564 120.931818,129.739387 C120.46818,127.50921 120.236364,124.493033 120.236364,120.690764 C120.236364,115.645445 120.699995,111.569036 121.627273,108.461412 C122.55455,105.353788 123.818174,103.8 125.418182,103.8 Z M150.5,104.75 L150.5,165.504032 L147.921968,165.504032 L147.921968,151.228495 C147.525346,156.17147 146.821824,159.952421 145.811382,162.571461 C144.800939,165.1905 143.625255,166.5 142.284294,166.5 C140.490051,166.5 139.035791,164.231429 137.921471,159.69422 C136.807151,155.157011 136.25,148.646398 136.25,140.162186 L136.25,104.75 L138.828032,104.75 L138.828032,139.166219 C138.828032,145.215831 139.224648,149.882077 140.017893,153.165099 C140.811137,156.44812 141.887667,158.089606 143.247515,158.089606 C144.664023,158.089606 145.797212,156.30057 146.647117,152.722446 C147.497022,149.144322 147.921968,143.924765 147.921968,137.06362 L147.921968,104.75 L150.5,104.75 Z M160.669784,103.8 C162.218953,103.8 163.530885,105.262389 164.605621,108.187211 C165.680356,111.112034 166.430723,115.023925 166.856745,119.923002 L166.856745,104.567762 L169.5,104.567762 L169.5,164.782238 L166.856745,164.782238 L166.856745,149.426998 C166.430723,154.326075 165.680356,158.237966 164.605621,161.162789 C163.530885,164.087611 162.218953,165.55 160.669784,165.55 C159.256168,165.55 157.997488,164.306969 156.893705,161.82087 C155.789923,159.334771 154.923369,155.770198 154.29402,151.127043 C153.66467,146.483887 153.35,141.018208 153.35,134.72984 C153.35,128.441472 153.66467,122.957513 154.29402,118.277798 C154.923369,113.598082 155.789923,110.015229 156.893705,107.52913 C157.997488,105.043031 159.256168,103.8 160.669784,103.8 Z M161.396909,113.3 C159.823782,113.3 158.564364,115.280722 157.618616,119.242226 C156.672867,123.20373 156.2,128.6646 156.2,135.625 C156.2,142.5854 156.672867,148.04627 157.618616,152.007774 C158.564364,155.969278 159.823782,157.95 161.396909,157.95 C162.408204,157.95 163.311802,157.024429 164.107728,155.173259 C164.903655,153.322089 165.526342,150.711978 165.975806,147.342848 C166.425271,143.973719 166.65,140.067808 166.65,135.625 C166.65,131.182192 166.425271,127.25777 165.975806,123.851617 C165.526342,120.445464 164.903655,117.835353 164.107728,116.021206 C163.311802,114.20706 162.408204,113.3 161.396909,113.3 Z M177.1,83.85 L177.1,165.55 L174.25,165.55 L174.25,83.85 L177.1,83.85 Z M179.95,86.7 C179.95,84.7208234 180.123654,83.1177145 180.470968,81.890625 C180.818281,80.6635355 181.277954,80.05 181.85,80.05 C182.422046,80.05 182.881719,80.6635355 183.229032,81.890625 C183.576346,83.1177145 183.75,84.7208234 183.75,86.7 C183.75,88.6791766 183.576346,90.2822855 183.229032,91.509375 C182.881719,92.7364645 182.422046,93.35 181.85,93.35 C181.277954,93.35 180.818281,92.7364645 180.470968,91.509375 C180.123654,90.2822855 179.95,88.6791766 179.95,86.7 Z M183.75,104.75 L183.75,165.55 L180.9,165.55 L180.9,104.75 L183.75,104.75 Z M192.868182,103.8 C194.559099,103.8 195.918177,105.573147 196.945455,109.119494 C197.972732,112.665841 198.595453,117.436885 198.813636,123.432771 L196.440909,123.432771 C196.331818,119.849864 195.963639,116.906805 195.336364,114.603508 C194.709088,112.300211 193.868187,111.148579 192.813636,111.148579 C191.922723,111.148579 191.227275,112.007733 190.727273,113.726066 C190.22727,115.444399 189.977273,117.765942 189.977273,120.690764 C189.977273,122.88438 190.145453,124.657527 190.481818,126.010258 C190.818183,127.362988 191.236361,128.38666 191.736364,129.081306 C192.236366,129.775951 192.922723,130.525425 193.795455,131.329751 C194.904551,132.353439 195.799997,133.395391 196.481818,134.455639 C197.16364,135.515887 197.745452,137.215915 198.227273,139.555773 C198.709093,141.89563 198.95,145.039767 198.95,148.988277 C198.95,153.887354 198.490914,157.872365 197.572727,160.943428 C196.654541,164.014491 195.431826,165.55 193.904545,165.55 C192.122718,165.55 190.668187,163.831693 189.540909,160.395027 C188.413631,156.958361 187.750001,152.169036 187.55,146.026909 L189.95,146.026909 C190.04091,149.682937 190.43636,152.644275 191.136364,154.911012 C191.836367,157.17775 192.759085,158.311101 193.904545,158.311101 C194.759095,158.311101 195.42727,157.433668 195.909091,155.678774 C196.390911,153.923881 196.631818,151.620618 196.631818,148.768917 C196.631818,146.429059 196.459093,144.564513 196.113636,143.175222 C195.76818,141.785931 195.340912,140.725699 194.831818,139.994494 C194.322725,139.263288 193.622732,138.495534 192.731818,137.691208 C191.622722,136.66752 190.736367,135.643848 190.072727,134.62016 C189.409088,133.596472 188.845457,131.969564 188.381818,129.739387 C187.918179,127.50921 187.686364,124.493033 187.686364,120.690764 C187.686364,115.645445 188.149995,111.569036 189.077273,108.461412 C190.00455,105.353788 191.268174,103.8 192.868182,103.8 Z M202.75,86.7 C202.75,84.7208234 202.923654,83.1177145 203.270968,81.890625 C203.618281,80.6635355 204.077954,80.05 204.65,80.05 C205.222046,80.05 205.681719,80.6635355 206.029032,81.890625 C206.376346,83.1177145 206.55,84.7208234 206.55,86.7 C206.55,88.6791766 206.376346,90.2822855 206.029032,91.509375 C205.681719,92.7364645 205.222046,93.35 204.65,93.35 C204.077954,93.35 203.618281,92.7364645 203.270968,91.509375 C202.923654,90.2822855 202.75,88.6791766 202.75,86.7 Z M205.6,104.75 L205.6,165.55 L202.75,165.55 L202.75,104.75 L205.6,104.75 Z M225.55,131.329751 C225.55,133.450247 225.511905,135.278234 225.435714,136.813766 L212.892857,136.813766 C212.95,143.687098 213.459519,148.84202 214.421429,152.278686 C215.383338,155.715352 216.559517,157.433659 217.95,157.433659 C219.207149,157.433659 220.25952,156.208908 221.107143,153.759369 C221.954766,151.309831 222.473809,148.037735 222.664286,143.942984 L225.435714,143.942984 C225.245237,148.110856 224.821432,151.839948 224.164286,155.130373 C223.50714,158.420798 222.654767,160.979979 221.607143,162.807993 C220.559519,164.636007 219.378578,165.55 218.064286,165.55 C216.559516,165.55 215.226196,164.306969 214.064286,161.82087 C212.902375,159.334771 211.99286,155.770198 211.335714,151.127043 C210.678568,146.483887 210.35,141.018208 210.35,134.72984 C210.35,128.441472 210.678568,122.957513 211.335714,118.277798 C211.99286,113.598082 212.902375,110.015229 214.064286,107.52913 C215.226196,105.043031 216.559516,103.8 218.064286,103.8 C219.588103,103.8 220.916661,105.043031 222.05,107.52913 C223.183339,110.015229 224.049997,113.342164 224.65,117.510036 C225.250003,121.677907 225.55,126.284433 225.55,131.329751 Z M222.689704,131.35 C222.74919,126.916645 222.550907,123.210124 222.094849,120.230328 C221.638792,117.250532 221.0142,115.033887 220.221056,113.580328 C219.427912,112.126769 218.565381,111.4 217.633437,111.4 C216.146292,111.4 214.89711,113.089737 213.885851,116.469262 C212.874593,119.848787 212.329314,124.808984 212.25,131.35 L222.689704,131.35 Z M231.340476,117.07957 C231.922112,112.874352 232.77301,109.609823 233.893197,107.285887 C235.013384,104.961951 236.348972,103.8 237.9,103.8 L237.9,114.755645 L236.995238,114.755645 C235.3365,114.755645 233.97937,116.212695 232.92381,119.126837 C231.868249,122.040979 231.340476,126.854775 231.340476,133.568369 L231.340476,165.55 L228.4,165.55 L228.4,104.795968 L231.340476,104.795968 L231.340476,117.07957 Z M254.05,104.75 L254.05,165.504032 L251.471968,165.504032 L251.471968,151.228495 C251.075346,156.17147 250.371824,159.952421 249.361382,162.571461 C248.350939,165.1905 247.175255,166.5 245.834294,166.5 C244.040051,166.5 242.585791,164.231429 241.471471,159.69422 C240.357151,155.157011 239.8,148.646398 239.8,140.162186 L239.8,104.75 L242.378032,104.75 L242.378032,139.166219 C242.378032,145.215831 242.774648,149.882077 243.567893,153.165099 C244.361137,156.44812 245.437667,158.089606 246.797515,158.089606 C248.214023,158.089606 249.347212,156.30057 250.197117,152.722446 C251.047022,149.144322 251.471968,143.924765 251.471968,137.06362 L251.471968,104.75 L254.05,104.75 Z M266.987376,103.8 C268.800506,103.8 270.264209,106.068571 271.378529,110.60578 C272.492849,115.142989 273.05,121.690489 273.05,130.248477 L273.05,165.55 L270.471968,165.55 L270.471968,131.133781 C270.471968,125.084169 270.075352,120.436366 269.282107,117.190233 C268.488863,113.9441 267.412333,112.321057 266.052485,112.321057 C264.635977,112.321057 263.502788,114.110093 262.652883,117.688217 C261.802978,121.266341 261.378032,126.485898 261.378032,133.347043 L261.378032,165.55 L258.8,165.55 L258.8,104.795968 L261.378032,104.795968 L261.378032,119.182168 C261.774654,114.239193 262.478176,110.439798 263.488618,107.783871 C264.499061,105.127944 265.665302,103.8 266.987376,103.8 Z M284.169784,103.8 C285.718953,103.8 287.030885,105.273925 288.105621,108.221818 C289.180356,111.169712 289.930723,115.11246 290.356745,120.050182 L290.356745,104.573818 L293,104.573818 L293,166.258182 C293,171.85918 292.690171,176.833675 292.070504,181.181818 C291.450836,185.529961 290.579442,188.919988 289.456295,191.352 C288.333148,193.784012 287.026057,195 285.534982,195 C283.385511,195 281.63304,193.028626 280.277518,189.085818 C278.921996,185.143011 278.060284,179.818458 277.692356,173.112 L280.306565,173.112 C280.616398,177.165354 281.202169,180.352716 282.063894,182.674182 C282.925619,184.995648 284.034226,186.156364 285.389748,186.156364 C286.822729,186.156364 288.008793,184.406078 288.947977,180.905455 C289.88716,177.404831 290.356745,172.522456 290.356745,166.258182 L290.356745,149.786909 C289.930723,154.724631 289.180356,158.667379 288.105621,161.615273 C287.030885,164.563166 285.718953,166.037091 284.169784,166.037091 C282.756168,166.037091 281.497488,164.784255 280.393705,162.278545 C279.289923,159.772836 278.423369,156.180145 277.79402,151.500364 C277.16467,146.820583 276.85,141.311789 276.85,134.973818 C276.85,128.635847 277.16467,123.10863 277.79402,118.392 C278.423369,113.67537 279.289923,110.064255 280.393705,107.558545 C281.497488,105.052836 282.756168,103.8 284.169784,103.8 Z M284.896909,113.3 C283.323782,113.3 282.064364,115.280722 281.118616,119.242226 C280.172867,123.20373 279.7,128.6646 279.7,135.625 C279.7,142.5854 280.172867,148.04627 281.118616,152.007774 C282.064364,155.969278 283.323782,157.95 284.896909,157.95 C285.908204,157.95 286.811802,157.024429 287.607728,155.173259 C288.403655,153.322089 289.026342,150.711978 289.475806,147.342848 C289.925271,143.973719 290.15,140.067808 290.15,135.625 C290.15,131.182192 289.925271,127.25777 289.475806,123.851617 C289.026342,120.445464 288.403655,117.835353 287.607728,116.021206 C286.811802,114.20706 285.908204,113.3 284.896909,113.3 Z M12.8305085,10.8632812 L12.8305085,78.8773438 L8,78.8773438 L8,10.8632812 L12.8305085,10.8632812 Z M37.071082,24.9351563 C40.656368,24.9351563 43.550696,26.9168835 45.754153,30.8803973 C47.9576101,34.8439112 49.059322,40.5635304 49.059322,48.0394265 L49.059322,78.8773438 L43.961519,78.8773438 L43.961519,48.8127912 C43.961519,43.528106 43.1772495,39.467982 41.6086869,36.6322973 C40.0401242,33.7966125 37.9113926,32.3787914 35.2224281,32.3787914 C32.4214235,32.3787914 30.1806533,33.941617 28.5000505,37.0673149 C26.8194477,40.1930128 25.9791589,44.7525966 25.9791589,50.746203 L25.9791589,78.8773438 L20.8813559,78.8773438 L20.8813559,25.8051915 L25.9791589,25.8051915 L25.9791589,38.3723678 C26.7634403,34.0543934 28.154585,30.7354031 30.152635,28.4152974 C32.150685,26.0951917 34.456811,24.9351563 37.071082,24.9351563 Z M71.6016949,72.2550838 L71.6016949,80.05 L67.8023044,80.05 C64.673379,80.05 62.3360323,78.7508603 60.7901941,76.1525419 C59.2443559,73.5542235 58.4714484,69.2021055 58.4714484,63.0960573 L58.4714484,34.2548674 L53.8898305,34.2548674 L53.8898305,26.5573877 L58.4714484,26.5573877 L58.4714484,13.2085938 L63.6118002,13.2085938 L63.6118002,26.5573877 L71.5458215,26.5573877 L71.5458215,34.2548674 L63.6118002,34.2548674 L63.6118002,63.2909302 C63.6118002,66.7337021 63.9749736,69.0883928 64.7013313,70.355073 C65.427689,71.6217532 66.6848277,72.2550838 68.4727851,72.2550838 L71.6016949,72.2550838 Z M106.220339,49.5067829 C106.220339,51.3994276 106.145683,53.0309934 105.996368,54.4015292 L81.4155569,54.4015292 C81.5275429,60.5363086 82.5260701,65.1373242 84.4111683,68.2047139 C86.2962665,71.2721036 88.6012777,72.8057754 91.3262712,72.8057754 C93.7899639,72.8057754 95.8523424,71.7126263 97.5134685,69.5262954 C99.1745947,67.3399644 100.191786,64.4194616 100.565073,60.7646994 L105.996368,60.7646994 C105.623081,64.4847252 104.792531,67.8131195 103.504691,70.749982 C102.216852,73.6868444 100.546419,75.9710366 98.4933414,77.6026268 C96.4402641,79.2342171 94.1259209,80.05 91.5502421,80.05 C88.6012766,80.05 85.9883084,78.9405353 83.7112591,76.7215725 C81.4342098,74.5026097 79.6517922,71.3210564 78.3639528,67.1768171 C77.0761134,63.0325778 76.4322034,58.1541961 76.4322034,52.5415256 C76.4322034,46.9288551 77.0761134,42.0341577 78.3639528,37.8572866 C79.6517922,33.6804155 81.4342098,30.4825465 83.7112591,28.2635838 C85.9883084,26.044621 88.6012766,24.9351563 91.5502421,24.9351563 C94.5365363,24.9351563 97.1401725,26.044621 99.3612288,28.2635838 C101.582285,30.4825465 103.280714,33.4519963 104.456568,37.1720221 C105.632421,40.8920479 106.220339,45.0035937 106.220339,49.5067829 Z M100.565709,50.7335937 C100.675698,46.5641285 100.309073,43.0782344 99.4658231,40.2758069 C98.622573,37.4733794 97.4677044,35.388678 96.0011826,34.0216402 C94.5346608,32.6546024 92.9398422,31.9710938 91.216679,31.9710938 C88.4669506,31.9710938 86.1572134,33.5602514 84.287398,36.7386142 C82.4175827,39.9169771 81.409364,44.5819236 81.2627119,50.7335937 L100.565709,50.7335937 Z M117.644875,36.5356267 C118.630698,32.862126 120.072899,30.0103722 121.971521,27.9802797 C123.870143,25.9501873 126.133851,24.9351563 128.762712,24.9351563 L128.762712,34.5055444 L127.229217,34.5055444 C124.417796,34.5055444 122.117577,35.778361 120.328491,38.3240325 C118.539405,40.8697041 117.644875,45.0748325 117.644875,50.9395441 L117.644875,78.8773438 L112.661017,78.8773438 L112.661017,25.8051915 L117.644875,25.8051915 L117.644875,36.5356267 Z M146.654128,24.9351563 C149.588744,24.9351563 152.073959,26.2404089 154.109849,28.8509533 C156.145739,31.4614978 157.567173,34.9530486 158.374192,39.3257105 L158.374192,25.6204207 L163.381356,25.6204207 L163.381356,79.3647355 L158.374192,79.3647355 L158.374192,65.6594458 C157.567173,70.0321077 156.145739,73.5236585 154.109849,76.1342029 C152.073959,78.7447474 149.588744,80.05 146.654128,80.05 C143.97629,80.05 141.59195,78.9405353 139.501036,76.7215725 C137.410122,74.5026097 135.768596,71.3210564 134.576408,67.1768171 C133.384221,63.0325778 132.788136,58.1541961 132.788136,52.5415256 C132.788136,46.9288551 133.384221,42.0341577 134.576408,37.8572866 C135.768596,33.6804155 137.410122,30.4825465 139.501036,28.2635838 C141.59195,26.044621 143.97629,24.9351563 146.654128,24.9351563 Z M148.028476,33.14375 C144.877376,33.14375 142.354658,34.8604199 140.460247,38.2938112 C138.565836,41.7272025 137.618644,46.4600775 137.618644,52.4925781 C137.618644,58.5250787 138.565836,63.2579537 140.460247,66.691345 C142.354658,70.1247363 144.877376,71.8414062 148.028476,71.8414062 C150.054184,71.8414062 151.864163,71.0392241 153.45847,69.4348356 C155.052777,67.8304471 156.300068,65.5682933 157.200383,62.6483063 C158.100697,59.7283193 158.550847,56.3431104 158.550847,52.4925781 C158.550847,48.6420458 158.100697,45.2407933 157.200383,42.2887185 C156.300068,39.3366437 155.052777,37.0744899 153.45847,35.5021892 C151.864163,33.9298886 150.054184,33.14375 148.028476,33.14375 Z M188.366143,78.8773437 L176.551766,54.6096981 L176.551766,78.8773437 L171.432203,78.8773437 L171.432203,6.17265625 L176.551766,6.17265625 L176.551766,48.4199747 L188.197366,24.9383256 L194.442107,24.9383256 L180.60241,51.7604603 L194.779661,78.8773437 L188.366143,78.8773437 Z M213.29661,72.2550838 L213.29661,80.05 L209.49722,80.05 C206.368294,80.05 204.030948,78.7508603 202.485109,76.1525419 C200.939271,73.5542235 200.166364,69.2021055 200.166364,63.0960573 L200.166364,34.2548674 L195.584746,34.2548674 L195.584746,26.5573877 L200.166364,26.5573877 L200.166364,13.2085938 L205.306716,13.2085938 L205.306716,26.5573877 L213.240737,26.5573877 L213.240737,34.2548674 L205.306716,34.2548674 L205.306716,63.2909302 C205.306716,66.7337021 205.669889,69.0883928 206.396247,70.355073 C207.122604,71.6217532 208.379743,72.2550838 210.1677,72.2550838 L213.29661,72.2550838 Z M218.932203,10.2769531 C218.932203,8.70642351 219.263324,7.4343136 219.925574,6.46058524 C220.587825,5.48685688 221.464319,5 222.555085,5 C223.64585,5 224.522345,5.48685688 225.184595,6.46058524 C225.846846,7.4343136 226.177966,8.70642351 226.177966,10.2769531 C226.177966,11.8474827 225.846846,13.1195926 225.184595,14.093321 C224.522345,15.0670494 223.64585,15.5539062 222.555085,15.5539062 C221.464319,15.5539062 220.587825,15.0670494 219.925574,14.093321 C219.263324,13.1195926 218.932203,11.8474827 218.932203,10.2769531 Z M224.567797,26.1078125 L224.567797,80.05 L219.737288,80.05 L219.737288,26.1078125 L224.567797,26.1078125 Z M245.152826,70.519231 L254.565434,26.1078125 L259.991525,26.1078125 L248.087345,80.05 L242.10757,80.05 L230.20339,26.1078125 L235.629481,26.1078125 L245.152826,70.519231 Z M293,49.5067829 C293,51.3994276 292.925344,53.0309934 292.776029,54.4015292 L268.195218,54.4015292 C268.307204,60.5363086 269.305731,65.1373242 271.190829,68.2047139 C273.075928,71.2721036 275.380939,72.8057754 278.105932,72.8057754 C280.569625,72.8057754 282.632003,71.7126263 284.29313,69.5262954 C285.954256,67.3399644 286.971447,64.4194616 287.344734,60.7646994 L292.776029,60.7646994 C292.402742,64.4847252 291.572192,67.8131195 290.284352,70.749982 C288.996513,73.6868444 287.32608,75.9710366 285.273002,77.6026268 C283.219925,79.2342171 280.905582,80.05 278.329903,80.05 C275.380938,80.05 272.767969,78.9405353 270.49092,76.7215725 C268.213871,74.5026097 266.431453,71.3210564 265.143614,67.1768171 C263.855774,63.0325778 263.211864,58.1541961 263.211864,52.5415256 C263.211864,46.9288551 263.855774,42.0341577 265.143614,37.8572866 C266.431453,33.6804155 268.213871,30.4825465 270.49092,28.2635838 C272.767969,26.044621 275.380938,24.9351563 278.329903,24.9351563 C281.316197,24.9351563 283.919834,26.044621 286.14089,28.2635838 C288.361946,30.4825465 290.060375,33.4519963 291.236229,37.1720221 C292.412082,40.8920479 293,45.0035937 293,49.5067829 Z M287.34537,50.7335937 C287.455359,46.5641285 287.088734,43.0782344 286.245484,40.2758069 C285.402234,37.4733794 284.247365,35.388678 282.780844,34.0216402 C281.314322,32.6546024 279.719503,31.9710938 277.99634,31.9710938 C275.246612,31.9710938 272.936874,33.5602514 271.067059,36.7386142 C269.197244,39.9169771 268.189025,44.5819236 268.042373,50.7335937 L287.34537,50.7335937 Z" id="Modulvisualisierung" fill="#000000" fill-rule="nonzero"></path>
    </g>
</svg>