<?xml version="1.0" encoding="UTF-8"?>
<svg width="300px" height="200px" viewBox="0 0 300 200" version="1.1" xmlns="http://www.w3.org/2000/svg" xmlns:xlink="http://www.w3.org/1999/xlink">
    <!-- Generator: Sketch 55.2 (78181) - https://sketchapp.com -->
    <title>tavolata-innere-werte</title>
    <desc>Created with Sketch.</desc>
    <g id="tavolata-innere-werte" stroke="none" stroke-width="1" fill="none" fill-rule="evenodd">
        <path d="M96.35,138 L78.9137817,194.05 L68.1013782,194.05 L52.2237045,148.255957 L36.3460309,194.05 L25.5336273,194.05 L8,138 L17.8383131,138 L30.9885336,185.622624 L47.2558434,138 L57.0941566,138 L73.3614664,185.463617 L86.6090959,138 L96.35,138 Z M158.1,170.256128 C158.1,171.78941 157.966668,173.111185 157.7,174.221492 L113.8,174.221492 C114.000001,179.19144 115.783316,182.918845 119.15,185.403819 C122.516683,187.888793 126.633309,189.131261 131.5,189.131261 C135.900022,189.131261 139.583318,188.245672 142.55,186.474467 C145.516681,184.703262 147.33333,182.337285 148,179.376465 L157.7,179.376465 C157.03333,182.390157 155.550011,185.086578 153.25,187.465808 C150.949989,189.845039 147.966685,191.695523 144.3,193.017318 C140.633315,194.339113 136.500023,195 131.9,195 C126.633307,195 121.966687,194.101193 117.9,192.303552 C113.833313,190.505912 110.650011,187.928451 108.35,184.571092 C106.049988,181.213734 104.9,177.261627 104.9,172.714654 C104.9,168.16768 106.049988,164.202356 108.35,160.818561 C110.650011,157.434767 113.833313,154.844088 117.9,153.046448 C121.966687,151.248807 126.633307,150.35 131.9,150.35 C137.23336,150.35 141.883313,151.248807 145.85,153.046448 C149.816686,154.844088 152.849989,157.249719 154.95,160.26341 C157.05001,163.277102 158.1,166.607975 158.1,170.256128 Z M148.565369,170.3 C148.765457,167.133318 148.098506,164.485803 146.564493,162.357377 C145.030481,160.228951 142.929582,158.645634 140.261735,157.607377 C137.593887,156.56912 134.692646,156.05 131.557925,156.05 C126.555711,156.05 122.353914,157.256955 118.952408,159.670902 C115.550903,162.084848 113.716785,165.627845 113.45,170.3 L148.565369,170.3 Z M178.321429,159.002151 C180.066335,155.961454 182.619031,153.600949 185.979592,151.920565 C189.340153,150.24018 193.346916,149.4 198,149.4 L198,157.321774 L195.285714,157.321774 C190.309499,157.321774 186.238111,158.375333 183.071429,160.482482 C179.904746,162.589631 178.321429,166.070376 178.321429,170.924821 L178.321429,194.05 L169.5,194.05 L169.5,150.120161 L178.321429,150.120161 L178.321429,159.002151 Z M233.15,187.735131 L233.15,194.05 L226.425079,194.05 C220.886881,194.05 216.749777,192.997532 214.013644,190.892566 C211.27751,188.787599 209.909464,185.261832 209.909464,180.31516 L209.909464,156.950146 L201.8,156.950146 L201.8,150.714213 L209.909464,150.714213 L209.909464,139.9 L219.007886,139.9 L219.007886,150.714213 L233.051104,150.714213 L233.051104,156.950146 L219.007886,156.950146 L219.007886,180.473032 C219.007886,183.262113 219.650703,185.169711 220.936356,186.195882 C222.22201,187.222053 224.447145,187.735131 227.61183,187.735131 L233.15,187.735131 Z M293,170.256128 C293,171.78941 292.866668,173.111185 292.6,174.221492 L248.7,174.221492 C248.900001,179.19144 250.683316,182.918845 254.05,185.403819 C257.416683,187.888793 261.533309,189.131261 266.4,189.131261 C270.800022,189.131261 274.483318,188.245672 277.45,186.474467 C280.416681,184.703262 282.23333,182.337285 282.9,179.376465 L292.6,179.376465 C291.93333,182.390157 290.450011,185.086578 288.15,187.465808 C285.849988,189.845039 282.866685,191.695523 279.2,193.017318 C275.533315,194.339113 271.400023,195 266.8,195 C261.533307,195 256.866687,194.101193 252.8,192.303552 C248.733313,190.505912 245.550011,187.928451 243.25,184.571092 C240.949988,181.213734 239.8,177.261627 239.8,172.714654 C239.8,168.16768 240.949988,164.202356 243.25,160.818561 C245.550011,157.434767 248.733313,154.844088 252.8,153.046448 C256.866687,151.248807 261.533307,150.35 266.8,150.35 C272.13336,150.35 276.783313,151.248807 280.75,153.046448 C284.716686,154.844088 287.749989,157.249719 289.85,160.26341 C291.950011,163.277102 293,166.607975 293,170.256128 Z M284.415369,170.3 C284.615457,167.133318 283.948506,164.485803 282.414493,162.357377 C280.880481,160.228951 278.779582,158.645634 276.111735,157.607377 C273.443887,156.56912 270.542646,156.05 267.407925,156.05 C262.405711,156.05 258.203914,157.256955 254.802408,159.670902 C251.400903,162.084848 249.566785,165.627845 249.3,170.3 L284.415369,170.3 Z M40.7222222,8.51086957 L40.7222222,16.4954003 L27.4058169,16.4954003 L27.4058169,84.5797101 L21.3164054,84.5797101 L21.3164054,16.4954003 L8,16.4954003 L8,8.51086957 L40.7222222,8.51086957 Z M61.6890488,24.8949275 C65.2328981,24.8949275 68.2340505,26.3361227 70.6925959,29.2185561 C73.1511414,32.1009896 74.8676677,35.9561865 75.8422262,40.7842626 L75.8422262,25.6515625 L81.8888889,25.6515625 L81.8888889,84.993365 L75.8422262,84.993365 L75.8422262,69.8606649 C74.8676677,74.688741 73.1511414,78.5439379 70.6925959,81.4263714 C68.2340505,84.3088049 65.2328981,85.75 61.6890488,85.75 C58.4552863,85.75 55.5759519,84.5249841 53.0509592,82.0749157 C50.5259666,79.6248472 48.5436556,76.1119341 47.1039668,71.536071 C45.664278,66.9602079 44.9444444,61.5737411 44.9444444,55.3765091 C44.9444444,49.1792772 45.664278,43.7747955 47.1039668,39.1629019 C48.5436556,34.5510083 50.5259666,31.0200803 53.0509592,28.5700118 C55.5759519,26.1199434 58.4552863,24.8949275 61.6890488,24.8949275 Z M63.3514038,34.2572464 C59.6966663,34.2572464 56.7707448,36.1781134 54.5735514,40.019905 C52.376358,43.8616966 51.2777778,49.1575449 51.2777778,55.9076087 C51.2777778,62.6576725 52.376358,67.9535208 54.5735514,71.7953124 C56.7707448,75.637104 59.6966663,77.557971 63.3514038,77.557971 C65.7008779,77.557971 67.8001451,76.6603696 69.6492682,74.8651399 C71.4983914,73.0699101 72.9450366,70.5386742 73.9892473,67.2713561 C75.033458,64.004038 75.5555556,60.2161601 75.5555556,55.9076087 C75.5555556,51.5990573 75.033458,47.7932274 73.9892473,44.4900047 C72.9450366,41.186782 71.4983914,38.655546 69.6492682,36.8962209 C67.8001451,35.1368958 65.7008779,34.2572464 63.3514038,34.2572464 Z M105.177819,74.0343114 L116.518174,24.8949275 L123.055556,24.8949275 L108.713342,84.5797101 L101.508881,84.5797101 L87.1666667,24.8949275 L93.7040479,24.8949275 L105.177819,74.0343114 Z M145.783525,24.8949275 C149.314832,24.8949275 152.477317,26.1199434 155.271073,28.5700118 C158.064829,31.0200803 160.255101,34.5510083 161.841954,39.1629019 C163.428807,43.7747955 164.222222,49.1792772 164.222222,55.3765091 C164.222222,61.5737411 163.428807,66.9602079 161.841954,71.536071 C160.255101,76.1119341 158.064829,79.6248472 155.271073,82.0749157 C152.477317,84.5249841 149.314832,85.75 145.783525,85.75 C142.252217,85.75 139.089733,84.5249841 136.295977,82.0749157 C133.502221,79.6248472 131.300774,76.1119341 129.691571,71.536071 C128.082367,66.9602079 127.277778,61.5737411 127.277778,55.3765091 C127.277778,49.1792772 128.082367,43.7747955 129.691571,39.1629019 C131.300774,34.5510083 133.502221,31.0200803 136.295977,28.5700118 C139.089733,26.1199434 142.252217,24.8949275 145.783525,24.8949275 Z M145.75,33.0869565 C143.58312,33.0869565 141.582103,33.8748857 139.746888,35.4507678 C137.911674,37.0266499 136.430258,39.4441599 135.302596,42.7033706 C134.174934,45.9625812 133.611111,49.9917646 133.611111,54.7910418 C133.611111,59.518688 134.174934,63.5120565 135.302596,66.7712671 C136.430258,70.0304778 137.911674,72.4479878 139.746888,74.0238699 C141.582103,75.5997519 143.58312,76.3876812 145.75,76.3876812 C147.91688,76.3876812 149.917897,75.5997519 151.753112,74.0238699 C153.588326,72.4479878 155.069742,70.0304778 156.197404,66.7712671 C157.325066,63.5120565 157.888889,59.518688 157.888889,54.7910418 C157.888889,49.9917646 157.325066,45.9625812 156.197404,42.7033706 C155.069742,39.4441599 153.588326,37.0266499 151.753112,35.4507678 C149.917897,33.8748857 147.91688,33.0869565 145.75,33.0869565 Z M177.944444,5 L177.944444,84.5797101 L171.611111,84.5797101 L171.611111,5 L177.944444,5 Z M203.133493,24.8949275 C206.677343,24.8949275 209.678495,26.3361227 212.13704,29.2185561 C214.595586,32.1009896 216.312112,35.9561865 217.286671,40.7842626 L217.286671,25.6515625 L223.333333,25.6515625 L223.333333,84.993365 L217.286671,84.993365 L217.286671,69.8606649 C216.312112,74.688741 214.595586,78.5439379 212.13704,81.4263714 C209.678495,84.3088049 206.677343,85.75 203.133493,85.75 C199.899731,85.75 197.020396,84.5249841 194.495404,82.0749157 C191.970411,79.6248472 189.9881,76.1119341 188.548411,71.536071 C187.108722,66.9602079 186.388889,61.5737411 186.388889,55.3765091 C186.388889,49.1792772 187.108722,43.7747955 188.548411,39.1629019 C189.9881,34.5510083 191.970411,31.0200803 194.495404,28.5700118 C197.020396,26.1199434 199.899731,24.8949275 203.133493,24.8949275 Z M204.795848,34.2572464 C201.141111,34.2572464 198.215189,36.1781134 196.017996,40.019905 C193.820802,43.8616966 192.722222,49.1575449 192.722222,55.9076087 C192.722222,62.6576725 193.820802,67.9535208 196.017996,71.7953124 C198.215189,75.637104 201.141111,77.557971 204.795848,77.557971 C207.145322,77.557971 209.24459,76.6603696 211.093713,74.8651399 C212.942836,73.0699101 214.389481,70.5386742 215.433692,67.2713561 C216.477902,64.004038 217,60.2161601 217,55.9076087 C217,51.5990573 216.477902,47.7932274 215.433692,44.4900047 C214.389481,41.186782 212.942836,38.655546 211.093713,36.8962209 C209.24459,35.1368958 207.145322,34.2572464 204.795848,34.2572464 Z M250.777778,75.9816622 L250.777778,84.5797101 L246.249211,84.5797101 C242.519785,84.5797101 239.733857,83.1467165 237.891342,80.2806862 C236.048828,77.4146559 235.127585,72.6141271 235.127585,65.8789559 L235.127585,34.0661786 L229.666667,34.0661786 L229.666667,25.5756063 L235.127585,25.5756063 L235.127585,10.8514493 L241.254469,10.8514493 L241.254469,25.5756063 L250.711181,25.5756063 L250.711181,34.0661786 L241.254469,34.0661786 L241.254469,66.0939071 C241.254469,69.8913973 241.687342,72.4886983 242.553102,73.8858881 C243.418862,75.2830778 244.917269,75.9816622 247.04837,75.9816622 L250.777778,75.9816622 Z M272.80016,24.8949275 C276.344009,24.8949275 279.345162,26.3361227 281.803707,29.2185561 C284.262253,32.1009896 285.978779,35.9561865 286.953337,40.7842626 L286.953337,25.6515625 L293,25.6515625 L293,84.993365 L286.953337,84.993365 L286.953337,69.8606649 C285.978779,74.688741 284.262253,78.5439379 281.803707,81.4263714 C279.345162,84.3088049 276.344009,85.75 272.80016,85.75 C269.566397,85.75 266.687063,84.5249841 264.16207,82.0749157 C261.637078,79.6248472 259.654767,76.1119341 258.215078,71.536071 C256.775389,66.9602079 256.055556,61.5737411 256.055556,55.3765091 C256.055556,49.1792772 256.775389,43.7747955 258.215078,39.1629019 C259.654767,34.5510083 261.637078,31.0200803 264.16207,28.5700118 C266.687063,26.1199434 269.566397,24.8949275 272.80016,24.8949275 Z M274.462515,34.2572464 C270.807777,34.2572464 267.881856,36.1781134 265.684662,40.019905 C263.487469,43.8616966 262.388889,49.1575449 262.388889,55.9076087 C262.388889,62.6576725 263.487469,67.9535208 265.684662,71.7953124 C267.881856,75.637104 270.807777,77.557971 274.462515,77.557971 C276.811989,77.557971 278.911256,76.6603696 280.760379,74.8651399 C282.609502,73.0699101 284.056148,70.5386742 285.100358,67.2713561 C286.144569,64.004038 286.666667,60.2161601 286.666667,55.9076087 C286.666667,51.5990573 286.144569,47.7932274 285.100358,44.4900047 C284.056148,41.186782 282.609502,38.655546 280.760379,36.8962209 C278.911256,35.1368958 276.811989,34.2572464 274.462515,34.2572464 Z M25.9444444,102.514295 C23.0334422,102.493445 21.0097279,102.754067 19.8732407,103.29617 C18.7367536,103.838272 18.1685185,104.776511 18.1685185,106.110917 L18.1685185,106.580041 L25.9444444,106.580041 L25.9444444,109.082039 L18.1685185,109.082039 L18.1685185,123.75 L12.7253704,123.75 L12.7253704,109.082039 L8,109.082039 L8,106.580041 L12.7253704,106.580041 L12.7253704,105.891992 C12.7253704,101.784525 17.1316843,99.8246469 25.9444444,100.012298 L25.9444444,102.514295 Z M61.8333333,107.125 L61.8333333,123.481855 L56.2953391,123.481855 L56.2953391,119.638441 C55.4433357,120.969242 53.9320667,121.98719 51.7614866,122.692316 C49.5909066,123.397442 47.0653631,123.75 44.1847802,123.75 C40.3304792,123.75 37.2065137,123.139231 34.8127899,121.917675 C32.4190662,120.696118 31.2222222,118.943261 31.2222222,116.65905 L31.2222222,107.125 L36.7602165,107.125 L36.7602165,116.390905 C36.7602165,118.019647 37.6122071,119.275944 39.3162138,120.159834 C41.0202206,121.043725 43.3327665,121.485663 46.2539209,121.485663 C49.2967901,121.485663 51.731049,121.004 53.5567705,120.040659 C55.382492,119.077317 56.2953391,117.672052 56.2953391,115.824821 L56.2953391,107.125 L61.8333333,107.125 Z M38.6111111,102.986742 C38.6111111,102.482952 38.9172192,102.057136 39.5294444,101.70928 C40.1416697,101.361425 40.8911067,101.1875 41.7777778,101.1875 C42.6644489,101.1875 43.4138858,101.361425 44.0261111,101.70928 C44.6383364,102.057136 44.9444444,102.482952 44.9444444,102.986742 C44.9444444,103.466543 44.6383364,103.880364 44.0261111,104.22822 C43.4138858,104.576075 42.6644489,104.75 41.7777778,104.75 C40.8911067,104.75 40.1416697,104.576075 39.5294444,104.22822 C38.9172192,103.880364 38.6111111,103.466543 38.6111111,102.986742 Z M48.1111111,102.986742 C48.1111111,102.482952 48.4172192,102.057136 49.0294444,101.70928 C49.6416697,101.361425 50.3911067,101.1875 51.2777778,101.1875 C52.1644489,101.1875 52.9138858,101.361425 53.5261111,101.70928 C54.1383364,102.057136 54.4444444,102.482952 54.4444444,102.986742 C54.4444444,103.466543 54.1383364,103.880364 53.5261111,104.22822 C52.9138858,104.576075 52.1644489,104.75 51.2777778,104.75 C50.3911067,104.75 49.6416697,104.576075 49.0294444,104.22822 C48.4172192,103.880364 48.1111111,103.466543 48.1111111,102.986742 Z M75.8320106,110.700269 C76.9306555,109.568095 78.5379083,108.689183 80.6538171,108.063508 C82.7697259,107.437833 85.2925024,107.125 88.2222222,107.125 L88.2222222,110.074597 L86.5132275,110.074597 C83.3800549,110.074597 80.8165885,110.466879 78.8227513,111.251456 C76.8289142,112.036033 75.8320106,113.332055 75.8320106,115.139561 L75.8320106,123.75 L70.2777778,123.75 L70.2777778,107.393145 L75.8320106,107.393145 L75.8320106,110.700269 Z M108.277778,101.78125 C108.277778,101.251113 108.615439,100.821709 109.290771,100.493025 C109.966103,100.16434 110.859911,100 111.972222,100 C113.084534,100 113.978342,100.16434 114.653674,100.493025 C115.329006,100.821709 115.666667,101.251113 115.666667,101.78125 C115.666667,102.311387 115.329006,102.740791 114.653674,103.069475 C113.978342,103.39816 113.084534,103.5625 111.972222,103.5625 C110.859911,103.5625 109.966103,103.39816 109.290771,103.069475 C108.615439,102.740791 108.277778,102.311387 108.277778,101.78125 Z M114.611111,107.125 L114.611111,123.75 L109.333333,123.75 L109.333333,107.125 L114.611111,107.125 Z M140.643252,107.125 C144.538124,107.125 147.682375,107.735769 150.076099,108.957325 C152.469823,110.178882 153.666667,111.94167 153.666667,114.245744 L153.666667,123.75 L148.128672,123.75 L148.128672,114.484095 C148.128672,112.855353 147.276682,111.604022 145.572675,110.730063 C143.868668,109.856104 141.556122,109.419131 138.634968,109.419131 C135.592099,109.419131 133.15784,109.900794 131.332118,110.864135 C129.506397,111.827476 128.59355,113.232742 128.59355,115.079973 L128.59355,123.75 L123.055556,123.75 L123.055556,107.393145 L128.59355,107.393145 L128.59355,111.266353 C129.445553,109.935552 130.956822,108.912638 133.127402,108.197581 C135.297982,107.482523 137.80324,107.125 140.643252,107.125 Z M179.698807,107.125 C183.59368,107.125 186.737931,107.735769 189.131655,108.957325 C191.525378,110.178882 192.722222,111.94167 192.722222,114.245744 L192.722222,123.75 L187.184228,123.75 L187.184228,114.484095 C187.184228,112.855353 186.332237,111.604022 184.628231,110.730063 C182.924224,109.856104 180.611678,109.419131 177.690524,109.419131 C174.647654,109.419131 172.213395,109.900794 170.387674,110.864135 C168.561952,111.827476 167.649105,113.232742 167.649105,115.079973 L167.649105,123.75 L162.111111,123.75 L162.111111,107.393145 L167.649105,107.393145 L167.649105,111.266353 C168.501109,109.935552 170.012378,108.912638 172.182958,108.197581 C174.353538,107.482523 176.858796,107.125 179.698807,107.125 Z M231.777778,113.878774 C231.777778,114.490456 231.695768,115.01776 231.531746,115.460702 L204.529762,115.460702 C204.652778,117.443394 205.749659,118.93039 207.820437,119.921736 C209.891214,120.913082 212.423265,121.408748 215.416667,121.408748 C218.123029,121.408748 220.388549,121.055454 222.213294,120.348857 C224.038038,119.642259 225.155421,118.698385 225.565476,117.517207 L231.531746,117.517207 C231.121691,118.719478 230.209332,119.795177 228.794643,120.744338 C227.379953,121.693499 225.544985,122.431725 223.289683,122.959036 C221.03438,123.486348 218.492078,123.75 215.662698,123.75 C212.423264,123.75 209.552923,123.391433 207.051587,122.67429 C204.550252,121.957146 202.592269,120.928903 201.177579,119.589532 C199.76289,118.25016 199.055556,116.673522 199.055556,114.859569 C199.055556,113.045617 199.76289,111.463706 201.177579,110.113788 C202.592269,108.76387 204.550252,107.730354 207.051587,107.01321 C209.552923,106.296067 212.423264,105.9375 215.662698,105.9375 C218.943138,105.9375 221.803229,106.296067 224.243056,107.01321 C226.682883,107.730354 228.548605,108.690047 229.840278,109.892318 C231.131951,111.094589 231.777778,112.423394 231.777778,113.878774 Z M226.479201,114.25 C226.599374,112.930549 226.198802,111.827418 225.277473,110.940574 C224.356145,110.05373 223.094344,109.394014 221.492033,108.961407 C219.889722,108.5288 218.147235,108.3125 216.26452,108.3125 C213.260187,108.3125 210.736585,108.815398 208.693639,109.821209 C206.650692,110.82702 205.54912,112.303269 205.388889,114.25 L226.479201,114.25 Z M244.720899,110.700269 C245.819544,109.568095 247.426797,108.689183 249.542706,108.063508 C251.658615,107.437833 254.181391,107.125 257.111111,107.125 L257.111111,110.074597 L255.402116,110.074597 C252.268944,110.074597 249.705477,110.466879 247.71164,111.251456 C245.717803,112.036033 244.720899,113.332055 244.720899,115.139561 L244.720899,123.75 L239.166667,123.75 L239.166667,107.393145 L244.720899,107.393145 L244.720899,110.700269 Z M293,113.878774 C293,114.490456 292.91799,115.01776 292.753968,115.460702 L265.751984,115.460702 C265.875001,117.443394 266.971881,118.93039 269.042659,119.921736 C271.113436,120.913082 273.645488,121.408748 276.638889,121.408748 C279.345252,121.408748 281.610771,121.055454 283.435516,120.348857 C285.26026,119.642259 286.377643,118.698385 286.787698,117.517207 L292.753968,117.517207 C292.343913,118.719478 291.431555,119.795177 290.016865,120.744338 C288.602175,121.693499 286.767207,122.431725 284.511905,122.959036 C282.256602,123.486348 279.7143,123.75 276.884921,123.75 C273.645486,123.75 270.775145,123.391433 268.27381,122.67429 C265.772474,121.957146 263.814491,120.928903 262.399802,119.589532 C260.985112,118.25016 260.277778,116.673522 260.277778,114.859569 C260.277778,113.045617 260.985112,111.463706 262.399802,110.113788 C263.814491,108.76387 265.772474,107.730354 268.27381,107.01321 C270.775145,106.296067 273.645486,105.9375 276.884921,105.9375 C280.16536,105.9375 283.025451,106.296067 285.465278,107.01321 C287.905105,107.730354 289.770827,108.690047 291.0625,109.892318 C292.354173,111.094589 293,112.423394 293,113.878774 Z M287.701423,114.25 C287.821596,112.930549 287.421024,111.827418 286.499696,110.940574 C285.578367,110.05373 284.316566,109.394014 282.714255,108.961407 C281.111944,108.5288 279.369457,108.3125 277.486742,108.3125 C274.482409,108.3125 271.958807,108.815398 269.915861,109.821209 C267.872914,110.82702 266.771342,112.303269 266.611111,114.25 L287.701423,114.25 Z" id="Werte" fill="#000000" fill-rule="nonzero"></path>
    </g>
</svg>