<?xml version="1.0" encoding="UTF-8"?>
<svg width="44px" height="44px" viewBox="0 0 44 44" version="1.1" xmlns="http://www.w3.org/2000/svg" xmlns:xlink="http://www.w3.org/1999/xlink">
    <!-- Generator: Sketch 61.2 (89653) - https://sketch.com -->
    <desc>Created with Sketch.</desc>
    <g id="git" stroke="none" stroke-width="1" fill="none" fill-rule="evenodd">
        <rect id="Rectangle" fill="#FFFFFF" transform="translate(22.034524, 22.034524) rotate(45.000000) translate(-22.034524, -22.034524) " x="5.33452378" y="5.33452378" width="33.4" height="33.4" rx="3"></rect>
        <path d="M43.1700485,20.0400603 L23.9594182,0.829969582 C22.853295,-0.276656527 21.059077,-0.276656527 19.9519962,0.829969582 L15.9632489,4.81976134 L21.0231639,9.87978648 C22.1991979,9.48233963 23.5476148,9.74905998 24.484707,10.6866515 C25.4275453,11.6299892 25.6918657,12.9899278 25.2843718,14.1702971 L30.1618483,19.0474009 C31.3421919,18.640377 32.7030586,18.9037454 33.6454181,19.8475619 C34.9622314,21.1644039 34.9622314,23.2981668 33.6454181,24.6159664 C32.3276471,25.9332873 30.1939307,25.9332873 28.8756809,24.6159664 C27.8854372,23.6247436 27.6402705,22.1690346 28.142575,20.9489207 L23.5935835,16.4003091 L23.5935835,28.3701632 C23.9144071,28.5291419 24.2175136,28.7407943 24.484707,29.0079936 C25.8015203,30.3248355 25.8015203,32.4585984 24.484707,33.7768769 C23.1678937,35.09324 21.0327408,35.09324 19.7168851,33.7768769 C18.4000718,32.4581195 18.4000718,30.3243567 19.7168851,29.0079936 C20.0424972,28.6828533 20.4193452,28.4367236 20.8215718,28.2719986 L20.8215718,16.1905721 C20.4193452,16.0258471 20.0434548,15.7821116 19.7168851,15.4545771 C18.7194589,14.457608 18.4795595,12.9932798 18.9909619,11.7683773 L14.002873,6.77922219 L0.829951517,19.9509939 C-0.276650506,21.0585777 -0.276650506,22.8528347 0.829951517,23.9594609 L20.0415395,43.1700304 C21.1476627,44.2766565 22.9414018,44.2766565 24.0489615,43.1700304 L43.1700485,24.0485273 C44.2766505,22.9419011 44.2766505,21.1466864 43.1700485,20.0400603 Z" id="Path" fill="#FF1493" fill-rule="nonzero"></path>
    </g>
</svg>
