<?xml version="1.0" encoding="UTF-8"?>
<svg width="512px" height="512px" viewBox="0 0 512 512" version="1.1" xmlns="http://www.w3.org/2000/svg" xmlns:xlink="http://www.w3.org/1999/xlink">
    <!-- Generator: Sketch 53.1 (72631) - https://sketchapp.com -->
    <title>sun1</title>
    <desc>Created with Sketch.</desc>
    <g id="sun1" stroke="none" stroke-width="1" fill="none" fill-rule="evenodd" stroke-linecap="square">
        <path d="M270.5205,223.413357 L238.379662,0.68235661 L270.5205,223.413357 L226.608569,1.87106961 L270.5205,223.413357 Z M270.5205,223.413357 L270.917807,226.166631 L270.5205,223.413357 L270.903056,225.34341 L270.5205,223.413357 Z M266.190645,221.953684 L207.136248,4.76658271 L266.190645,221.953684 L195.599379,7.39165982 L266.190645,221.953684 Z M266.190645,221.953684 L266.79813,223.800132 L266.190645,221.953684 L266.911479,224.604729 L266.190645,221.953684 Z M263.793269,220.973799 L186.064525,9.84167758 L263.793269,220.973799 L174.79403,13.435992 L263.793269,220.973799 Z M263.793269,220.973799 L264.77245,223.633519 L263.793269,220.973799 L264.583089,222.815584 L263.793269,220.973799 Z M259.235676,220.40255 L156.339747,20.2857491 L259.235676,220.40255 L145.595072,25.2369301 L259.235676,220.40255 Z M259.235676,220.40255 L260.515666,222.891935 L259.235676,220.40255 L260.23181,222.113305 L259.235676,220.40255 Z M254.658471,220.418373 L118.06572,40.5376978 L254.658471,220.418373 L128.121909,34.3043905 L254.658471,220.418373 Z M254.658471,220.418373 L256.2128,222.70453 L254.658471,220.418373 L255.841168,221.975882 L254.658471,220.418373 Z M252.065981,220.263447 L100.356123,53.017038 L252.065981,220.263447 L109.845285,45.9537983 L252.065981,220.263447 Z M252.065981,220.263447 L253.420673,221.756874 L252.065981,220.263447 L253.868905,222.473161 L252.065981,220.263447 Z M247.560028,221.195401 L76.5801997,73.6683683 L247.560028,221.195401 L85.1309783,65.4929837 L247.560028,221.195401 Z M247.560028,221.195401 L249.593367,223.144534 L247.560028,221.195401 L249.068043,222.496566 L247.560028,221.195401 Z M243.225308,222.690219 L63.0037026,87.9226235 L243.225308,222.690219 L55.5208297,97.0865903 L243.225308,222.690219 Z M243.225308,222.690219 L245.453105,224.35614 L243.225308,222.690219 L244.86057,223.784465 L243.225308,222.690219 Z M239.131493,224.719745 L37.4976681,122.917046 L239.131493,224.719745 L43.7992568,112.903037 L239.131493,224.719745 Z M239.131493,224.719745 L240.866685,225.595824 L239.131493,224.719745 L241.515772,226.08461 L239.131493,224.719745 Z M236.743409,225.722063 L27.0600528,141.902637 L236.743409,225.722063 L32.4879325,131.391629 L236.743409,225.722063 Z M236.743409,225.722063 L239.316501,226.910383 L236.743409,225.722063 L238.604235,226.465914 L236.743409,225.722063 Z M233.11677,228.540834 L18.8544138,159.795296 L233.11677,228.540834 L14.7577949,170.893942 L233.11677,228.540834 Z M233.11677,228.540834 L235.782121,229.396005 L233.11677,228.540834 L235.03083,229.046146 L233.11677,228.540834 Z M229.891386,231.788595 L6.11088041,201.17941 L229.891386,231.788595 L8.8140661,189.660996 L229.891386,231.788595 Z M229.891386,231.788595 L231.829004,232.053626 L229.891386,231.788595 L232.60702,232.306075 L229.891386,231.788595 Z M227.94867,233.512213 L2.41253003,222.526212 L227.94867,233.512213 L4.12791602,210.821897 L227.94867,233.512213 Z M227.94867,233.512213 L229.962594,233.610312 L227.94867,233.512213 L230.786033,233.799857 L227.94867,233.512213 Z M225.421471,237.357394 L0.468552988,242.113841 L225.421471,237.357394 L0.203109311,253.941024 L225.421471,237.357394 Z M225.421471,237.357394 L228.237504,237.297851 L225.421471,237.357394 L227.407861,237.211129 L225.421471,237.357394 Z M223.413357,241.4795 L1.87106961,285.391431 L223.413357,241.4795 L0.68235661,273.620338 L223.413357,241.4795 Z M223.413357,241.4795 L225.34341,241.096944 L223.413357,241.4795 L226.166631,241.082193 L223.413357,241.4795 Z M221.953684,245.809355 L7.39165982,316.400621 L221.953684,245.809355 L4.76658271,304.863752 L221.953684,245.809355 Z M221.953684,245.809355 L223.800132,245.20187 L221.953684,245.809355 L224.604729,245.088521 L221.953684,245.809355 Z M220.973799,248.206731 L13.435992,337.20597 L220.973799,248.206731 L9.84167758,325.935475 L220.973799,248.206731 Z M220.973799,248.206731 L222.815584,247.416911 L220.973799,248.206731 L223.633519,247.22755 L220.973799,248.206731 Z M220.40255,252.764324 L20.2857491,355.660253 L220.40255,252.764324 L25.2369301,366.404928 L220.40255,252.764324 Z M220.40255,252.764324 L222.113305,251.76819 L220.40255,252.764324 L222.891935,251.484334 L220.40255,252.764324 Z M220.418373,257.341529 L34.3043905,383.878091 L220.418373,257.341529 L40.5376978,393.93428 L220.418373,257.341529 Z M220.418373,257.341529 L221.975882,256.158832 L220.418373,257.341529 L222.70453,255.7872 L220.418373,257.341529 Z M220.263447,259.934019 L45.9537983,402.154715 L220.263447,259.934019 L53.017038,411.643877 L220.263447,259.934019 Z M220.263447,259.934019 L222.473161,258.131095 L220.263447,259.934019 L221.756874,258.579327 L220.263447,259.934019 Z M221.195401,264.439972 L73.6683683,435.4198 L221.195401,264.439972 L65.4929837,426.869022 L221.195401,264.439972 Z M221.195401,264.439972 L222.496566,262.931957 L221.195401,264.439972 L223.144534,262.406633 L221.195401,264.439972 Z M222.690219,268.774692 L87.9226235,448.996297 L222.690219,268.774692 L97.0865903,456.47917 L222.690219,268.774692 Z M222.690219,268.774692 L224.35614,266.546895 L222.690219,268.774692 L223.784465,267.13943 L222.690219,268.774692 Z M224.719745,272.868507 L112.903037,468.200743 L224.719745,272.868507 L122.917046,474.502332 L224.719745,272.868507 Z M224.719745,272.868507 L226.08461,270.484228 L224.719745,272.868507 L225.595824,271.133315 L224.719745,272.868507 Z M225.722063,275.256591 L141.902637,484.939947 L225.722063,275.256591 L131.391629,479.512068 L225.722063,275.256591 Z M225.722063,275.256591 L226.465914,273.395765 L225.722063,275.256591 L226.910383,272.683499 L225.722063,275.256591 Z M228.540834,278.88323 L159.795296,493.145586 L228.540834,278.88323 L170.893942,497.242205 L228.540834,278.88323 Z M228.540834,278.88323 L229.396005,276.217879 L228.540834,278.88323 L229.046146,276.96917 L228.540834,278.88323 Z M231.788595,282.108614 L201.17941,505.88912 L231.788595,282.108614 L189.660996,503.185934 L231.788595,282.108614 Z M231.788595,282.108614 L232.306075,279.39298 L231.788595,282.108614 L232.053626,280.170996 L231.788595,282.108614 Z M233.512213,284.05133 L222.526212,509.58747 L233.512213,284.05133 L210.821897,507.872084 L233.512213,284.05133 Z M233.512213,284.05133 L233.610312,282.037406 L233.512213,284.05133 L233.799857,281.213967 L233.512213,284.05133 Z M237.357394,286.578529 L253.941024,511.796891 L237.357394,286.578529 L242.113841,511.531447 L237.357394,286.578529 Z M237.357394,286.578529 L237.211129,284.592139 L237.357394,286.578529 L237.297851,283.762496 L237.357394,286.578529 Z M241.4795,288.586643 L285.391431,510.12893 L241.4795,288.586643 L273.620338,511.317643 L241.4795,288.586643 Z M241.4795,288.586643 L241.096944,286.65659 L241.4795,288.586643 L241.082193,285.833369 L241.4795,288.586643 Z M245.809355,290.046316 L316.400621,504.60834 L245.809355,290.046316 L304.863752,507.233417 L245.809355,290.046316 Z M245.809355,290.046316 L245.20187,288.199868 L245.809355,290.046316 L245.088521,287.395271 L245.809355,290.046316 Z M248.206731,291.026201 L325.935475,502.158322 L248.206731,291.026201 L337.20597,498.564008 L248.206731,291.026201 Z M248.206731,291.026201 L247.22755,288.366481 L248.206731,291.026201 L247.416911,289.184416 L248.206731,291.026201 Z M252.764324,291.59745 L355.660253,491.714251 L252.764324,291.59745 L366.404928,486.76307 L252.764324,291.59745 Z M252.764324,291.59745 L251.484334,289.108065 L252.764324,291.59745 L251.76819,289.886695 L252.764324,291.59745 Z M257.341529,291.581627 L383.878091,477.69561 L257.341529,291.581627 L393.93428,471.462302 L257.341529,291.581627 Z M257.341529,291.581627 L255.7872,289.29547 L257.341529,291.581627 L256.158832,290.024118 L257.341529,291.581627 Z M259.934019,291.736553 L402.154715,466.046202 L259.934019,291.736553 L411.643877,458.982962 L259.934019,291.736553 Z M259.934019,291.736553 L258.131095,289.526839 L259.934019,291.736553 L258.579327,290.243126 L259.934019,291.736553 Z M264.439972,290.804599 L435.4198,438.331632 L264.439972,290.804599 L426.869022,446.507016 L264.439972,290.804599 Z M264.439972,290.804599 L262.931957,289.503434 L264.439972,290.804599 L262.406633,288.855466 L264.439972,290.804599 Z M268.774692,289.309781 L448.996297,424.077377 L268.774692,289.309781 L456.47917,414.91341 L268.774692,289.309781 Z M268.774692,289.309781 L267.13943,288.215535 L268.774692,289.309781 L266.546895,287.64386 L268.774692,289.309781 Z M272.868507,287.280255 L474.502332,389.082954 L272.868507,287.280255 L468.200743,399.096963 L272.868507,287.280255 Z M272.868507,287.280255 L270.484228,285.91539 L272.868507,287.280255 L271.133315,286.404176 L272.868507,287.280255 Z M275.256591,286.277937 L479.512068,380.608371 L275.256591,286.277937 L484.939947,370.097363 L275.256591,286.277937 Z M275.256591,286.277937 L272.683499,285.089617 L275.256591,286.277937 L273.395765,285.534086 L275.256591,286.277937 Z M278.88323,283.459166 L493.145586,352.204704 L278.88323,283.459166 L497.242205,341.106058 L278.88323,283.459166 Z M278.88323,283.459166 L276.217879,282.603995 L278.88323,283.459166 L276.96917,282.953854 L278.88323,283.459166 Z M282.108614,280.211405 L505.88912,310.82059 L282.108614,280.211405 L503.185934,322.339004 L282.108614,280.211405 Z M282.108614,280.211405 L280.170996,279.946374 L282.108614,280.211405 L279.39298,279.693925 L282.108614,280.211405 Z M284.05133,278.487787 L509.58747,289.473788 L284.05133,278.487787 L507.872084,301.178103 L284.05133,278.487787 Z M284.05133,278.487787 L282.037406,278.389688 L284.05133,278.487787 L281.213967,278.200143 L284.05133,278.487787 Z M286.578529,274.642606 L511.796891,258.058976 L286.578529,274.642606 L511.531447,269.886159 L286.578529,274.642606 Z M286.578529,274.642606 L284.592139,274.788871 L286.578529,274.642606 L283.762496,274.702149 L286.578529,274.642606 Z M288.586643,270.5205 L510.12893,226.608569 L288.586643,270.5205 L511.317643,238.379662 L288.586643,270.5205 Z M288.586643,270.5205 L286.65659,270.903056 L288.586643,270.5205 L285.833369,270.917807 L288.586643,270.5205 Z M290.046316,266.190645 L504.60834,195.599379 L290.046316,266.190645 L507.233417,207.136248 L290.046316,266.190645 Z M290.046316,266.190645 L287.395271,266.911479 L290.046316,266.190645 L288.199868,266.79813 L290.046316,266.190645 Z M291.026201,263.793269 L498.564008,174.79403 L291.026201,263.793269 L502.158322,186.064525 L291.026201,263.793269 Z M291.026201,263.793269 L289.184416,264.583089 L291.026201,263.793269 L288.366481,264.77245 L291.026201,263.793269 Z M291.59745,259.235676 L491.714251,156.339747 L291.59745,259.235676 L486.76307,145.595072 L291.59745,259.235676 Z M291.59745,259.235676 L289.886695,260.23181 L291.59745,259.235676 L289.108065,260.515666 L291.59745,259.235676 Z M291.581627,254.658471 L477.69561,128.121909 L291.581627,254.658471 L471.462302,118.06572 L291.581627,254.658471 Z M291.581627,254.658471 L289.29547,256.2128 L291.581627,254.658471 L290.024118,255.841168 L291.581627,254.658471 Z M291.736553,252.065981 L458.982962,100.356123 L291.736553,252.065981 L466.046202,109.845285 L291.736553,252.065981 Z M291.736553,252.065981 L289.526839,253.868905 L291.736553,252.065981 L290.243126,253.420673 L291.736553,252.065981 Z M290.804599,247.560028 L438.331632,76.5801997 L290.804599,247.560028 L446.507016,85.1309783 L290.804599,247.560028 Z M290.804599,247.560028 L289.503434,249.068043 L290.804599,247.560028 L288.855466,249.593367 L290.804599,247.560028 Z M289.309781,243.225308 L414.91341,55.5208297 L289.309781,243.225308 L424.077377,63.0037026 L289.309781,243.225308 Z M289.309781,243.225308 L288.215535,244.86057 L289.309781,243.225308 L287.64386,245.453105 L289.309781,243.225308 Z M287.280255,239.131493 L389.082954,37.4976681 L287.280255,239.131493 L399.096963,43.7992568 L287.280255,239.131493 Z M287.280255,239.131493 L285.91539,241.515772 L287.280255,239.131493 L286.404176,240.866685 L287.280255,239.131493 Z M286.277937,236.743409 L370.097363,27.0600528 L286.277937,236.743409 L380.608371,32.4879325 L286.277937,236.743409 Z M286.277937,236.743409 L285.534086,238.604235 L286.277937,236.743409 L285.089617,239.316501 L286.277937,236.743409 Z M283.459166,233.11677 L341.106058,14.7577949 L283.459166,233.11677 L352.204704,18.8544138 L283.459166,233.11677 Z M283.459166,233.11677 L282.953854,235.03083 L283.459166,233.11677 L282.603995,235.782121 L283.459166,233.11677 Z M280.211405,229.891386 L310.82059,6.11088041 L280.211405,229.891386 L322.339004,8.8140661 L280.211405,229.891386 Z M280.211405,229.891386 L279.946374,231.829004 L280.211405,229.891386 L279.693925,232.60702 L280.211405,229.891386 Z M278.487787,227.94867 L301.178103,4.12791602 L278.487787,227.94867 L289.473788,2.41253003 L278.487787,227.94867 Z M278.487787,227.94867 L278.200143,230.786033 L278.487787,227.94867 L278.389688,229.962594 L278.487787,227.94867 Z M274.642606,225.421471 L258.058976,0.203109311 L274.642606,225.421471 L269.886159,0.468552988 L274.642606,225.421471 Z M274.642606,225.421471 L274.788871,227.407861 L274.642606,225.421471 L274.702149,228.237504 L274.642606,225.421471 Z M248.215799,0.252071168 L272.864835,226.734551 L248.215799,0.252071168 Z M279.699936,1.2509071 L276.563971,229.049183 L279.699936,1.2509071 Z M331.781172,11.6044703 L281.35181,233.772803 L331.781172,11.6044703 Z M361.231549,22.7843771 L284.102571,237.150908 L361.231549,22.7843771 Z M407.119624,49.5074892 L287.106792,243.153581 L407.119624,49.5074892 Z M431.336833,69.654644 L288.619036,247.231442 L431.336833,69.654644 Z M452.893197,92.6235746 L289.598029,251.483818 L452.893197,92.6235746 Z M482.399117,136.771644 L289.643438,258.209435 L482.399117,136.771644 Z M495.31829,165.501593 L289.199839,262.543198 L495.31829,165.501593 Z M508.869966,216.845457 L287.079614,268.912033 L508.869966,216.845457 Z M511.747929,248.215799 L285.265449,272.864835 L511.747929,248.215799 Z M510.749093,279.699936 L282.950817,276.563971 L510.749093,279.699936 Z M500.39553,331.781172 L278.227197,281.35181 L500.39553,331.781172 Z M489.215623,361.231549 L274.849092,284.102571 L489.215623,361.231549 Z M462.492511,407.119624 L268.846419,287.106792 L462.492511,407.119624 Z M442.345356,431.336833 L264.768558,288.619036 L442.345356,431.336833 Z M419.376425,452.893197 L260.516182,289.598029 L419.376425,452.893197 Z M375.228356,482.399117 L253.790565,289.643438 L375.228356,482.399117 Z M346.498407,495.31829 L249.456802,289.199839 L346.498407,495.31829 Z M295.154543,508.869966 L243.087967,287.079614 L295.154543,508.869966 Z M263.784201,511.747929 L239.135165,285.265449 L263.784201,511.747929 Z M232.300064,510.749093 L235.436029,282.950817 L232.300064,510.749093 Z M180.218828,500.39553 L230.64819,278.227197 L180.218828,500.39553 Z M150.768451,489.215623 L227.897429,274.849092 L150.768451,489.215623 Z M104.880376,462.492511 L224.893208,268.846419 L104.880376,462.492511 Z M80.6631665,442.345356 L223.380964,264.768558 L80.6631665,442.345356 Z M59.1068032,419.376425 L222.401971,260.516182 L59.1068032,419.376425 Z M29.6008831,375.228356 L222.356562,253.790565 L29.6008831,375.228356 Z M16.6817097,346.498407 L222.800161,249.456802 L16.6817097,346.498407 Z M3.13003414,295.154543 L224.920386,243.087967 L3.13003414,295.154543 Z M0.252071168,263.784201 L226.734551,239.135165 L0.252071168,263.784201 Z M1.2509071,232.300064 L229.049183,235.436029 L1.2509071,232.300064 Z M11.6044703,180.218828 L233.772803,230.64819 L11.6044703,180.218828 Z M22.7843771,150.768451 L237.150908,227.897429 L22.7843771,150.768451 Z M49.5074892,104.880376 L243.153581,224.893208 L49.5074892,104.880376 Z M69.654644,80.6631665 L247.231442,223.380964 L69.654644,80.6631665 Z M92.6235746,59.1068032 L251.483818,222.401971 L92.6235746,59.1068032 Z M136.771644,29.6008831 L258.209435,222.356562 L136.771644,29.6008831 Z M165.501593,16.6817097 L262.543198,222.800161 L165.501593,16.6817097 Z M216.845457,3.13003414 L268.912033,224.920386 L216.845457,3.13003414 Z" id="Line-5" stroke="#444444"></path>
    </g>
</svg>