<?xml version="1.0" encoding="UTF-8"?>
<svg width="44px" height="44px" viewBox="0 0 44 44" version="1.1" xmlns="http://www.w3.org/2000/svg" xmlns:xlink="http://www.w3.org/1999/xlink">
    <!-- Generator: Sketch 61.2 (89653) - https://sketch.com -->
    <desc>Created with Sketch.</desc>
    <g id="linkedIn" stroke="none" stroke-width="1" fill="none" fill-rule="evenodd">
        <circle id="Oval" fill="#FFFFFF" cx="22" cy="22" r="22"></circle>
        <path d="M27.0291081,18.3094868 C31.2245595,18.3094868 32,21.0754277 32,24.6734059 L32,32 L27.8565552,32 L27.8565552,25.5031104 C27.8565552,23.9541213 27.8293876,21.9611198 25.7025538,21.9611198 C23.5462237,21.9611198 23.2171078,23.6493002 23.2171078,25.3926905 L23.2171078,32 L19.0775441,32 L19.0775441,18.6407465 L23.0502212,18.6407465 L23.0502212,20.4673406 L23.106885,20.4673406 C23.6595513,19.4167963 25.0124971,18.3094868 27.0291081,18.3094868 Z M16.477218,18.6407465 L16.477218,32 L12.3291159,32 L12.3291159,18.6407465 L16.477218,18.6407465 Z M14.4039432,12 C15.7297213,12 16.8063339,13.0785381 16.8063339,14.407465 C16.8063339,15.7371695 15.7297213,16.8157076 14.4039432,16.8157076 C13.0727315,16.8157076 12,15.7371695 12,14.407465 C12,13.0785381 13.0727315,12 14.4039432,12 Z M22,44 C34.1502645,44 44,34.1502645 44,22 C44,9.8497355 34.1502645,0 22,0 C9.8497355,0 0,9.8497355 0,22 C0,34.1502645 9.8497355,44 22,44 Z" id="Fill-10" fill="#FF1493" fill-rule="nonzero"></path>
    </g>
</svg>
