<?xml version="1.0" encoding="UTF-8"?>
<svg width="300px" height="200px" viewBox="0 0 300 200" version="1.1" xmlns="http://www.w3.org/2000/svg" xmlns:xlink="http://www.w3.org/1999/xlink">
    <!-- Generator: Sketch 55.2 (78181) - https://sketchapp.com -->
    <title>hofsterben</title>
    <desc>Created with Sketch.</desc>
    <g id="hofsterben" stroke="none" stroke-width="1" fill="none" fill-rule="evenodd">
        <path d="M9.9,78.15 C9.9,77.584521 10.4643761,77.1264898 11.5931452,76.7758929 C12.7219142,76.4252959 14.2158509,76.25 16.075,76.25 C17.9341491,76.25 19.4280858,76.4252959 20.5568548,76.7758929 C21.6856239,77.1264898 22.25,77.584521 22.25,78.15 C22.25,78.715479 21.6856239,79.1735102 20.5568548,79.5241071 C19.4280858,79.8747041 17.9341491,80.05 16.075,80.05 C14.2158509,80.05 12.7219142,79.8747041 11.5931452,79.5241071 C10.4643761,79.1735102 9.9,78.715479 9.9,78.15 Z M21.3,83.85 L21.3,100 L11.8,100 L11.8,83.85 L21.3,83.85 Z M66.5203777,81.95 C73.1685223,81.95 78.5354335,82.6131206 82.6212724,83.9393817 C86.7071112,85.2656428 88.75,87.1795275 88.75,89.6810932 L88.75,100 L79.2972167,100 L79.2972167,89.9398746 C79.2972167,88.1715264 77.8429569,86.8129378 74.9343936,85.8640681 C72.0258304,84.9151984 68.0785538,84.4407706 63.0924453,84.4407706 C57.8985824,84.4407706 53.7435543,84.9637194 50.6272366,86.0096326 C47.5109188,87.0555459 45.9527833,88.5812624 45.9527833,90.586828 L45.9527833,100 L36.5,100 L36.5,82.241129 L45.9527833,82.241129 L45.9527833,86.4463262 C47.4070649,85.0014563 49.9866448,83.8908641 53.6916004,83.1145161 C57.396556,82.3381682 61.6727723,81.95 66.5203777,81.95 Z M151.115108,83.5320616 C156.673889,83.5320616 161.381411,83.9220621 165.237815,84.702075 C169.094219,85.4820878 171.786713,86.5253393 173.315378,87.8318608 L173.315378,78.15 L182.8,78.15 L182.8,99.7952477 L173.315378,99.7952477 L173.315378,95.7002008 C171.786713,97.0067223 169.094219,98.0499738 165.237815,98.8299866 C161.381411,99.6099994 156.673889,100 151.115108,100 C146.04272,100 141.526279,99.6684995 137.565647,99.0054886 C133.605016,98.3424777 130.49562,97.3918513 128.237365,96.153581 C125.97911,94.9153106 124.85,93.4576835 124.85,91.780656 C124.85,90.1036284 125.97911,88.6411263 128.237365,87.3931058 C130.49562,86.1450852 133.605016,85.1895839 137.565647,84.526573 C141.526279,83.8635621 146.04272,83.5320616 151.115108,83.5320616 Z M153.720296,85.75 C147.856826,85.75 143.16263,86.2557163 139.637567,87.2671642 C136.112505,88.278612 134.35,89.6728767 134.35,91.45 C134.35,93.2271233 136.112505,94.621388 139.637567,95.6328358 C143.16263,96.6442837 147.856826,97.15 153.720296,97.15 C157.489669,97.15 160.857624,96.913684 163.824261,96.4410448 C166.790897,95.9684056 169.11182,95.3019944 170.787097,94.441791 C172.462374,93.5815877 173.3,92.584334 173.3,91.45 C173.3,90.315666 172.462374,89.3136859 170.787097,88.4440299 C169.11182,87.5743738 166.790897,86.9079625 163.824261,86.4447761 C160.857624,85.9815897 157.489669,85.75 153.720296,85.75 Z M250.25,89.9971581 C250.25,90.6169954 250.111906,91.1513299 249.835714,91.6001776 L204.367857,91.6001776 C204.575001,93.6093055 206.422006,95.1161288 209.908929,96.1206927 C213.395851,97.1252567 217.659499,97.6275311 222.7,97.6275311 C227.257166,97.6275311 231.072008,97.269527 234.144643,96.553508 C237.217277,95.837489 239.098806,94.8810303 239.789286,93.684103 L249.835714,93.684103 C249.145235,94.902404 247.60894,95.9924463 245.226786,96.9542629 C242.844631,97.9160794 239.754781,98.6641477 235.957143,99.1984902 C232.159505,99.7328327 227.878595,100 223.114286,100 C217.659497,100 212.826212,99.6366525 208.614286,98.9099467 C204.40236,98.1832409 201.105369,97.1412886 198.723214,95.7840586 C196.34106,94.4268286 195.15,92.8291685 195.15,90.9910302 C195.15,89.1528919 196.34106,87.5498884 198.723214,86.1819716 C201.105369,84.8140547 204.40236,83.7667591 208.614286,83.0400533 C212.826212,82.3133475 217.659497,81.95 223.114286,81.95 C228.638123,81.95 233.454146,82.3133475 237.5625,83.0400533 C241.670854,83.7667591 244.812489,84.7392479 246.9875,85.9575488 C249.162511,87.1758498 250.25,88.5223727 250.25,89.9971581 Z M240.713497,90.5 C240.924401,89.233327 240.221398,88.1743212 238.604466,87.3229508 C236.987534,86.4715804 234.773073,85.8382534 231.961018,85.4229508 C229.148962,85.0076482 226.090897,84.8 222.786732,84.8 C217.514128,84.8 213.085207,85.2827821 209.499836,86.2483607 C205.914465,87.2139393 203.981206,88.6311382 203.7,90.5 L240.713497,90.5 Z M272.009524,85.8317204 C273.870758,84.6025028 276.593633,83.6482561 280.178231,82.9689516 C283.76283,82.2896471 288.03671,81.95 293,81.95 L293,85.1524194 L290.104762,85.1524194 C284.796799,85.1524194 280.453985,85.5783261 277.07619,86.4301523 C273.698396,87.2819786 272.009524,88.6890882 272.009524,90.6515233 L272.009524,100 L262.6,100 L262.6,82.241129 L272.009524,82.241129 L272.009524,85.8317204 Z M23.7277778,50.3940467 C23.7277778,53.0968591 23.4600736,55.6104368 22.9246572,57.9348554 C22.3892408,60.259274 21.5749739,62.1512143 20.4818322,63.610733 C19.3886904,65.0702516 18.0390151,65.8 16.432766,65.8 C14.8711348,65.8 13.4824194,65.1107932 12.266578,63.7323589 C11.0507366,62.3539246 10.080309,60.4619844 9.35526596,58.0564814 C8.63022293,55.6509784 8.21193515,52.907665 8.10039007,49.826459 L11.3463357,49.826459 C11.4132627,51.4481464 11.6419267,53.0292679 12.0323345,54.5698709 C12.4227423,56.1104739 12.9804593,57.3807767 13.7055024,58.3808172 C14.4305454,59.3808578 15.3061611,59.8808706 16.3323759,59.8808706 C17.6709169,59.8808706 18.6971162,59.0159836 19.4110047,57.2861837 C20.1248932,55.5563838 20.4818322,53.340111 20.4818322,50.6372986 C20.4818322,48.31288 20.2308595,46.4209398 19.7289066,44.9614211 C19.2269538,43.5019024 18.6078878,42.3532244 17.8716903,41.5153526 C17.1354928,40.6774808 16.1316021,39.7720522 14.8599882,38.7990398 C13.3652841,37.6098024 12.1661925,36.4881521 11.2626773,35.4340553 C10.3591621,34.3799585 9.58951264,32.798837 8.95370567,30.6906433 C8.31789871,28.5824497 8,25.7985948 8,22.338995 C8,19.3659014 8.29559003,16.7442128 8.88677896,14.4738504 C9.47796789,12.2034881 10.3256978,10.4466864 11.4299941,9.20339272 C12.5342904,7.96009905 13.8337711,7.33846154 15.3284752,7.33846154 C17.6486129,7.33846154 19.4890791,8.70336129 20.8499291,11.4332017 C22.2107791,14.1630422 23.0027373,17.636104 23.2258274,21.8524912 L19.9464184,21.8524912 C19.7679463,19.5821288 19.2883097,17.5820777 18.5074941,15.8522778 C17.7266785,14.1224779 16.6670161,13.257591 15.3284752,13.257591 C14.1014793,13.257591 13.1198973,14.0278809 12.3836998,15.5684839 C11.6475022,17.109087 11.279409,19.2848183 11.279409,22.0957431 C11.279409,24.3120492 11.5192273,26.1093924 11.9988712,27.4878267 C12.478515,28.866261 13.0752722,29.9473697 13.7891608,30.7311853 C14.5030493,31.5150009 15.4846313,32.3934017 16.7339362,33.3664142 C18.2509493,34.5556516 19.4723496,35.6908157 20.3981738,36.7719407 C21.3239979,37.8530656 22.110379,39.4882425 22.7573404,41.6775205 C23.4043019,43.8667985 23.7277778,46.7722782 23.7277778,50.3940467 Z M36.31,59.2550348 L36.31,65.8 L34.060812,65.8 C32.2085303,65.8 30.8248525,64.7091834 29.9097371,62.5275174 C28.9946217,60.3458514 28.5370709,56.6916157 28.5370709,51.5647006 L28.5370709,27.3483292 L25.8248148,27.3483292 L25.8248148,20.885176 L28.5370709,20.885176 L28.5370709,9.67692308 L31.58009,9.67692308 L31.58009,20.885176 L36.2769237,20.885176 L36.2769237,27.3483292 L31.58009,27.3483292 L31.58009,51.7283247 C31.58009,54.6190322 31.7950837,56.5961373 32.2250777,57.6596995 C32.6550717,58.7232617 33.3992808,59.2550348 34.4577275,59.2550348 L36.31,59.2550348 Z M42.3764286,30.0064516 C42.9541866,26.9010597 43.7994124,24.4903312 44.9121315,22.7741935 C46.0248506,21.0580559 47.3515342,20.2 48.8922222,20.2 L48.8922222,28.2903226 L47.9934921,28.2903226 C46.3458119,28.2903226 44.9977301,29.3662975 43.9492063,31.5182796 C42.9006826,33.6702617 42.3764286,37.2250648 42.3764286,42.1827957 L42.3764286,65.8 L39.4555556,65.8 L39.4555556,20.9354839 L42.3764286,20.9354839 L42.3764286,30.0064516 Z M67.7655556,20.2 L67.7655556,65.0645161 L64.7304801,65.0645161 L64.7304801,54.5225806 C64.2635431,58.1727781 63.4352981,60.9648649 62.2457205,62.8989247 C61.0561428,64.8329846 59.6720289,65.8 58.093337,65.8 C55.9810029,65.8 54.2689261,64.1247479 52.9570554,60.7741935 C51.6451848,57.4236392 50.9892593,52.6158019 50.9892593,46.3505376 L50.9892593,20.2 L54.0243347,20.2 L54.0243347,45.6150538 C54.0243347,50.0824596 54.4912648,53.5283033 55.4251388,55.9526882 C56.3590128,58.3770731 57.6263943,59.5892473 59.2273213,59.5892473 C60.8949535,59.5892473 62.2290393,58.2681136 63.2296186,55.6258065 C64.2301979,52.9834993 64.7304801,49.1290576 64.7304801,44.0623656 L64.7304801,20.2 L67.7655556,20.2 Z M82.8945408,64.6307692 L75.9970576,44.7269854 L75.9970576,64.6307692 L73.0081481,64.6307692 L73.0081481,5 L75.9970576,5 L75.9970576,39.6503119 L82.7960054,20.391185 L86.4418179,20.391185 L78.361909,42.390104 L86.6388889,64.6307692 L82.8945408,64.6307692 Z M97.1240741,59.2550348 L97.1240741,65.8 L94.8748861,65.8 C93.0226044,65.8 91.6389266,64.7091834 90.7238112,62.5275174 C89.8086958,60.3458514 89.351145,56.6916157 89.351145,51.5647006 L89.351145,27.3483292 L86.6388889,27.3483292 L86.6388889,20.885176 L89.351145,20.885176 L89.351145,9.67692308 L92.394164,9.67692308 L92.394164,20.885176 L97.0909978,20.885176 L97.0909978,27.3483292 L92.394164,27.3483292 L92.394164,51.7283247 C92.394164,54.6190322 92.6091578,56.5961373 93.0391518,57.6596995 C93.4691457,58.7232617 94.2133549,59.2550348 95.2718016,59.2550348 L97.1240741,59.2550348 Z M117.045926,20.2 L117.045926,65.0645161 L114.01085,65.0645161 L114.01085,54.5225806 C113.543913,58.1727781 112.715669,60.9648649 111.526091,62.8989247 C110.336513,64.8329846 108.952399,65.8 107.373707,65.8 C105.261373,65.8 103.549296,64.1247479 102.237426,60.7741935 C100.925555,57.4236392 100.26963,52.6158019 100.26963,46.3505376 L100.26963,20.2 L103.304705,20.2 L103.304705,45.6150538 C103.304705,50.0824596 103.771635,53.5283033 104.705509,55.9526882 C105.639383,58.3770731 106.906765,59.5892473 108.507692,59.5892473 C110.175324,59.5892473 111.50941,58.2681136 112.509989,55.6258065 C113.510568,52.9834993 114.01085,49.1290576 114.01085,44.0623656 L114.01085,20.2 L117.045926,20.2 Z M124.160873,30.0064516 C124.738631,26.9010597 125.583857,24.4903312 126.696576,22.7741935 C127.809295,21.0580559 129.135979,20.2 130.676667,20.2 L130.676667,28.2903226 L129.777937,28.2903226 C128.130256,28.2903226 126.782175,29.3662975 125.733651,31.5182796 C124.685127,33.6702617 124.160873,37.2250648 124.160873,42.1827957 L124.160873,65.8 L121.24,65.8 L121.24,20.9354839 L124.160873,20.9354839 L124.160873,30.0064516 Z M150.598519,40.5296625 C150.598519,42.0955673 150.553845,43.445465 150.464497,44.5793961 L135.755675,44.5793961 C135.822686,49.6550875 136.420191,53.461799 137.548208,55.9996448 C138.676225,58.5374905 140.055512,59.8063943 141.686111,59.8063943 C143.160351,59.8063943 144.39445,58.9019629 145.388446,57.0930728 C146.382441,55.2841828 146.991114,52.8678659 147.214484,49.8440497 L150.464497,49.8440497 C150.241128,52.9218626 149.744137,55.6756539 148.973512,58.1055062 C148.202886,60.5353585 147.203322,62.4252153 145.974788,63.7751332 C144.746255,65.1250512 143.361383,65.8 141.820132,65.8 C140.055511,65.8 138.491947,64.8820696 137.129392,63.0461812 C135.766836,61.2102928 134.700262,58.5779923 133.929636,55.1492007 C133.159011,51.7204091 132.773704,47.684215 132.773704,43.0404973 C132.773704,38.3967796 133.159011,34.3470866 133.929636,30.8912966 C134.700262,27.4355067 135.766836,24.7897072 137.129392,22.9538188 C138.491947,21.1179304 140.055511,20.2 141.820132,20.2 C143.60709,20.2 145.165071,21.1179304 146.49412,22.9538188 C147.82317,24.7897072 148.839487,27.246521 149.543102,30.3243339 C150.246716,33.4021468 150.598519,36.803889 150.598519,40.5296625 Z M147.4416,41.2461538 C147.507254,37.8683592 147.288409,35.0443437 146.785056,32.7740227 C146.281703,30.5037017 145.592339,28.8148297 144.716944,27.707356 C143.841548,26.5998824 142.889569,26.0461538 141.860979,26.0461538 C140.219612,26.0461538 138.840884,27.3335727 137.724754,29.9084489 C136.608624,32.4833252 136.006799,36.2625224 135.919259,41.2461538 L147.4416,41.2461538 Z M164.431459,20.2 C166.566028,20.2 168.289222,21.8752521 169.601093,25.2258065 C170.912963,28.5763608 171.568889,33.4114379 171.568889,39.7311828 L171.568889,65.8 L168.533813,65.8 L168.533813,40.3849462 C168.533813,35.9175404 168.066883,32.4853166 167.133009,30.088172 C166.199135,27.6910274 164.931754,26.4924731 163.330827,26.4924731 C161.663195,26.4924731 160.329109,27.8136069 159.32853,30.455914 C158.32795,33.0982211 157.827668,36.9526628 157.827668,42.0193548 L157.827668,65.8 L154.792593,65.8 L154.792593,20.9354839 L157.827668,20.9354839 L157.827668,31.5591398 C158.294605,27.9089423 159.12285,25.1032356 160.312428,23.1419355 C161.502005,21.1806354 162.875002,20.2 164.431459,20.2 Z M199.878889,20.2 L194.790869,64.6307692 L191.635009,64.6307692 L186.772407,28.454897 L181.877604,64.6307692 L178.68954,64.6307692 L173.665926,20.2 L176.62857,20.2 L180.396281,57.5898277 L185.291085,20.2 L188.350338,20.2 L193.277344,57.5088973 L197.077258,20.2 L199.878889,20.2 Z M210.054799,20.2 C211.764622,20.2 213.212606,21.2799182 214.398796,23.4397869 C215.584986,25.5996556 216.413169,28.4884366 216.88337,32.1062167 L216.88337,20.7669627 L219.800741,20.7669627 L219.800741,65.2330373 L216.88337,65.2330373 L216.88337,53.8937833 C216.413169,57.5115634 215.584986,60.4003444 214.398796,62.5602131 C213.212606,64.7200818 211.764622,65.8 210.054799,65.8 C208.494585,65.8 207.105375,64.8820696 205.887126,63.0461812 C204.668877,61.2102928 203.71246,58.5779923 203.017844,55.1492007 C202.323228,51.7204091 201.975926,47.684215 201.975926,43.0404973 C201.975926,38.3967796 202.323228,34.3470866 203.017844,30.8912966 C203.71246,27.4355067 204.668877,24.7897072 205.887126,22.9538188 C207.105375,21.1179304 208.494585,20.2 210.054799,20.2 Z M211.378769,26.0461538 C209.484662,26.0461538 207.968271,27.4984674 206.829552,30.4031382 C205.690833,33.3078089 205.121481,37.311851 205.121481,42.4153846 C205.121481,47.5189182 205.690833,51.5229603 206.829552,54.4276311 C207.968271,57.3323018 209.484662,58.7846154 211.378769,58.7846154 C212.59641,58.7846154 213.684378,58.1059642 214.642706,56.7486414 C215.601034,55.3913186 216.350774,53.4775222 216.891947,51.0071948 C217.433121,48.5368674 217.703704,45.6729593 217.703704,42.4153846 C217.703704,39.15781 217.433121,36.2803289 216.891947,33.782855 C216.350774,31.2853811 215.601034,29.3715847 214.642706,28.0414083 C213.684378,26.711232 212.59641,26.0461538 211.378769,26.0461538 Z M234.682199,20.2 C236.816769,20.2 238.539963,21.8752521 239.851833,25.2258065 C241.163704,28.5763608 241.81963,33.4114379 241.81963,39.7311828 L241.81963,65.8 L238.784554,65.8 L238.784554,40.3849462 C238.784554,35.9175404 238.317624,32.4853166 237.38375,30.088172 C236.449876,27.6910274 235.182495,26.4924731 233.581568,26.4924731 C231.913935,26.4924731 230.57985,27.8136069 229.57927,30.455914 C228.578691,33.0982211 228.078409,36.9526628 228.078409,42.0193548 L228.078409,65.8 L225.043333,65.8 L225.043333,20.9354839 L228.078409,20.9354839 L228.078409,31.5591398 C228.545346,27.9089423 229.373591,25.1032356 230.563168,23.1419355 C231.752746,21.1806354 233.125743,20.2 234.682199,20.2 Z M253.044058,19.9761714 C254.753881,19.9761714 256.201866,21.0613903 257.388055,23.2318608 C258.574245,25.4023312 259.402428,28.305292 259.872629,31.94083 L259.872629,5 L262.79,5 L262.79,65.2302544 L259.872629,65.2302544 L259.872629,53.8353414 C259.402428,57.4708794 258.574245,60.3738401 257.388055,62.5443106 C256.201866,64.714781 254.753881,65.8 253.044058,65.8 C251.483845,65.8 250.094634,64.8775639 248.876386,63.032664 C247.658137,61.1877641 246.701719,58.5425429 246.007103,55.096921 C245.312488,51.6512991 244.965185,47.5952933 244.965185,42.9287818 C244.965185,38.2622703 245.312488,34.1926992 246.007103,30.7199465 C246.701719,27.2471937 247.658137,24.5884073 248.876386,22.7435074 C250.094634,20.8986075 251.483845,19.9761714 253.044058,19.9761714 Z M254.368029,26.0461538 C252.473921,26.0461538 250.957531,27.4984674 249.818811,30.4031382 C248.680092,33.3078089 248.110741,37.311851 248.110741,42.4153846 C248.110741,47.5189182 248.680092,51.5229603 249.818811,54.4276311 C250.957531,57.3323018 252.473921,58.7846154 254.368029,58.7846154 C255.585669,58.7846154 256.673637,58.1059642 257.631965,56.7486414 C258.590294,55.3913186 259.340033,53.4775222 259.881207,51.0071948 C260.42238,48.5368674 260.692963,45.6729593 260.692963,42.4153846 C260.692963,39.15781 260.42238,36.2803289 259.881207,33.782855 C259.340033,31.2853811 258.590294,29.3715847 257.631965,28.0414083 C256.673637,26.711232 255.585669,26.0461538 254.368029,26.0461538 Z M284.808889,40.5296625 C284.808889,42.0955673 284.764216,43.445465 284.674868,44.5793961 L269.966045,44.5793961 C270.033056,49.6550875 270.630561,53.461799 271.758578,55.9996448 C272.886595,58.5374905 274.265882,59.8063943 275.896481,59.8063943 C277.370722,59.8063943 278.604821,58.9019629 279.598816,57.0930728 C280.592811,55.2841828 281.201485,52.8678659 281.424854,49.8440497 L284.674868,49.8440497 C284.451498,52.9218626 283.954508,55.6756539 283.183882,58.1055062 C282.413257,60.5353585 281.413692,62.4252153 280.185159,63.7751332 C278.956625,65.1250512 277.571754,65.8 276.030503,65.8 C274.265882,65.8 272.702317,64.8820696 271.339762,63.0461812 C269.977207,61.2102928 268.910632,58.5779923 268.140007,55.1492007 C267.369381,51.7204091 266.984074,47.684215 266.984074,43.0404973 C266.984074,38.3967796 267.369381,34.3470866 268.140007,30.8912966 C268.910632,27.4355067 269.977207,24.7897072 271.339762,22.9538188 C272.702317,21.1179304 274.265882,20.2 276.030503,20.2 C277.81746,20.2 279.375441,21.1179304 280.704491,22.9538188 C282.033541,24.7897072 283.049858,27.246521 283.753472,30.3243339 C284.457087,33.4021468 284.808889,36.803889 284.808889,40.5296625 Z M281.65197,41.2461538 C281.717625,37.8683592 281.498779,35.0443437 280.995426,32.7740227 C280.492074,30.5037017 279.80271,28.8148297 278.927314,27.707356 C278.051918,26.5998824 277.099939,26.0461538 276.071349,26.0461538 C274.429982,26.0461538 273.051254,27.3335727 271.935125,29.9084489 C270.818995,32.4833252 270.217169,36.2625224 270.12963,41.2461538 L281.65197,41.2461538 Z M291.1,5 L291.1,64.6307692 L287.954444,64.6307692 L287.954444,5 L291.1,5 Z M11.635016,187.194616 L21.6213235,187.194616 L21.6213235,195 L8,195 L8,117.495833 L11.635016,117.495833 L11.635016,187.194616 Z M33.6898011,133.936111 C35.8004761,133.936111 37.5879271,135.382252 39.0522079,138.274576 C40.5164886,141.1669 41.5388315,145.035325 42.1192671,149.879968 L42.1192671,134.695342 L45.7205882,134.695342 L45.7205882,194.240769 L42.1192671,194.240769 L42.1192671,179.056143 C41.5388315,183.900786 40.5164886,187.769211 39.0522079,190.661535 C37.5879271,193.55386 35.8004761,195 33.6898011,195 C31.7638102,195 30.0489125,193.770781 28.5450566,191.312305 C27.0412007,188.85383 25.8605596,185.328862 25.0030979,180.737298 C24.1456362,176.145733 23.7169118,170.740783 23.7169118,164.522286 C23.7169118,158.303789 24.1456362,152.880763 25.0030979,148.253044 C25.8605596,143.625326 27.0412007,140.082282 28.5450566,137.623806 C30.0489125,135.16533 31.7638102,133.936111 33.6898011,133.936111 Z M35.2032139,142.15625 C32.9949486,142.15625 31.2270485,144.083708 29.8994604,147.938682 C28.5718723,151.793657 27.9080882,157.107677 27.9080882,163.880903 C27.9080882,170.654129 28.5718723,175.968149 29.8994604,179.823123 C31.2270485,183.678097 32.9949486,185.605556 35.2032139,185.605556 C36.6228131,185.605556 37.8912322,184.704874 39.0085093,182.903484 C40.1257863,181.102094 40.9998782,178.562173 41.6308112,175.283643 C42.2617441,172.005114 42.5772059,168.204238 42.5772059,163.880903 C42.5772059,159.557567 42.2617441,155.738678 41.6308112,152.424121 C40.9998782,149.109563 40.1257863,146.569642 39.0085093,144.80428 C37.8912322,143.038918 36.6228131,142.15625 35.2032139,142.15625 Z M62.3978044,132.761806 C64.9308541,132.761806 66.9757334,135.00517 68.5325035,139.491965 C70.0892737,143.978761 70.8676471,150.453511 70.8676471,158.91641 L70.8676471,193.825694 L67.265985,193.825694 L67.265985,159.791878 C67.265985,153.809484 66.7118887,149.213323 65.6036794,146.003258 C64.4954701,142.793193 62.9914944,141.188184 61.0917071,141.188184 C59.112762,141.188184 57.5296297,142.957342 56.3422626,146.495709 C55.1548955,150.034076 54.5612209,155.195638 54.5612209,161.980548 L54.5612209,193.825694 L50.9595588,193.825694 L50.9595588,133.746707 L54.5612209,133.746707 L54.5612209,147.973061 C55.1153255,143.085007 56.0981869,139.327828 57.5098344,136.701411 C58.9214819,134.074994 60.5507889,132.761806 62.3978044,132.761806 Z M85.0317129,133.046343 C87.1423878,133.046343 88.9298389,134.513555 90.3941196,137.448024 C91.8584004,140.382492 92.8807432,144.307285 93.4611789,149.22252 L93.4611789,112.798611 L97.0625,112.798611 L97.0625,194.229706 L93.4611789,194.229706 L93.4611789,178.823823 C92.8807432,183.739058 91.8584004,187.663851 90.3941196,190.598319 C88.9298389,193.532788 87.1423878,195 85.0317129,195 C83.105722,195 81.3908243,193.75287 79.8869684,191.258571 C78.3831125,188.764273 77.2024714,185.187943 76.3450097,180.529474 C75.487548,175.871006 75.0588235,170.3873 75.0588235,164.078192 C75.0588235,157.769085 75.487548,152.267039 76.3450097,147.571889 C77.2024714,142.87674 78.3831125,139.28207 79.8869684,136.787771 C81.3908243,134.293473 83.105722,133.046343 85.0317129,133.046343 Z M85.4973316,142.15625 C83.2890663,142.15625 81.5211661,144.083708 80.193578,147.938682 C78.86599,151.793657 78.2022059,157.107677 78.2022059,163.880903 C78.2022059,170.654129 78.86599,175.968149 80.193578,179.823123 C81.5211661,183.678097 83.2890663,185.605556 85.4973316,185.605556 C86.9169307,185.605556 88.1853498,184.704874 89.3026269,182.903484 C90.419904,181.102094 91.2939959,178.562173 91.9249288,175.283643 C92.5558618,172.005114 92.8713235,168.204238 92.8713235,163.880903 C92.8713235,159.557567 92.5558618,155.738678 91.9249288,152.424121 C91.2939959,149.109563 90.419904,146.569642 89.3026269,144.80428 C88.1853498,143.038918 86.9169307,142.15625 85.4973316,142.15625 Z M131.639706,133.936111 L125.5383,193.825694 L121.753884,193.825694 L115.922794,145.063138 L110.053088,193.825694 L106.230055,193.825694 L100.205882,133.936111 L103.7586,133.936111 L108.276729,184.334995 L114.146436,133.936111 L117.815002,133.936111 L123.723325,184.225907 L128.280071,133.936111 L131.639706,133.936111 Z M134.783088,116.321528 C134.783088,114.574041 135.022501,113.158597 135.501334,112.075155 C135.980167,110.991713 136.613907,110.45 137.402574,110.45 C138.19124,110.45 138.82498,110.991713 139.303813,112.075155 C139.782646,113.158597 140.022059,114.574041 140.022059,116.321528 C140.022059,118.069015 139.782646,119.484458 139.303813,120.567901 C138.82498,121.651343 138.19124,122.193056 137.402574,122.193056 C136.613907,122.193056 135.980167,121.651343 135.501334,120.567901 C135.022501,119.484458 134.783088,118.069015 134.783088,116.321528 Z M138.974265,133.936111 L138.974265,193.825694 L135.830882,193.825694 L135.830882,133.936111 L138.974265,133.936111 Z M147.780725,145.893825 C148.486386,141.735331 149.518726,138.507075 150.877776,136.208961 C152.236827,133.910846 153.857208,132.761806 155.738971,132.761806 L155.738971,143.595721 L154.641282,143.595721 C152.628841,143.595721 150.982324,145.036581 149.701681,147.918344 C148.421037,150.800107 147.780725,155.560417 147.780725,162.199415 L147.780725,193.825694 L144.213235,193.825694 L144.213235,133.746707 L147.780725,133.746707 L147.780725,145.893825 Z M169.360294,185.061198 L169.360294,193.825694 L166.663133,193.825694 C164.441931,193.825694 162.782665,192.36496 161.685285,189.443446 C160.587905,186.521933 160.039223,181.628471 160.039223,174.762915 L160.039223,142.334279 L156.786765,142.334279 L156.786765,133.679339 L160.039223,133.679339 L160.039223,118.670139 L163.688323,118.670139 L163.688323,133.679339 L169.32063,133.679339 L169.32063,142.334279 L163.688323,142.334279 L163.688323,174.982027 C163.688323,178.853033 163.946138,181.500614 164.461774,182.924852 C164.97741,184.34909 165.869844,185.061198 167.139103,185.061198 L169.360294,185.061198 Z M180.324532,133.936111 C182.811176,133.936111 184.809819,135.689556 186.320521,139.196499 C187.831224,142.703442 188.74699,147.421476 189.067848,153.35074 L185.578543,153.35074 C185.418114,149.807643 184.876676,146.897285 183.954211,144.61958 C183.031747,142.341875 181.795128,141.203039 180.244318,141.203039 C178.934151,141.203039 177.911434,142.052647 177.176136,143.751887 C176.440839,145.451128 176.073195,147.746876 176.073195,150.6392 C176.073195,152.808443 176.320519,154.561888 176.815174,155.899588 C177.309829,157.237288 177.924796,158.249586 178.660094,158.936513 C179.395391,159.62344 180.40474,160.364587 181.688168,161.159976 C183.319193,162.17229 184.636024,163.202665 185.638703,164.251132 C186.641382,165.2996 187.496988,166.980738 188.205548,169.294597 C188.914108,171.608457 189.268382,174.717659 189.268382,178.622296 C189.268382,183.466939 188.593255,187.407672 187.242981,190.444612 C185.892707,193.481553 184.094597,195 181.848596,195 C179.228262,195 177.089246,193.300785 175.431484,189.902304 C173.773722,186.503823 172.797796,181.767713 172.503676,175.693833 L176.033088,175.693833 C176.166779,179.309238 176.748324,182.237672 177.777741,184.479223 C178.807158,186.720775 180.164096,187.841533 181.848596,187.841533 C183.105287,187.841533 184.087898,186.973849 184.796457,185.238455 C185.505017,183.50306 185.859291,181.225389 185.859291,178.405373 C185.859291,176.091514 185.605283,174.247685 185.097259,172.873831 C184.589235,171.499977 183.960899,170.451525 183.212233,169.728444 C182.463566,169.005363 181.434164,168.246139 180.123997,167.45075 C178.492973,166.438436 177.18951,165.426138 176.21357,164.413825 C175.237629,163.401511 174.40876,161.79268 173.726939,159.587283 C173.045117,157.381886 172.704211,154.399221 172.704211,150.6392 C172.704211,145.649941 173.386023,141.618824 174.749666,138.54573 C176.113309,135.472635 177.971579,133.936111 180.324532,133.936111 Z M203.107584,133.936111 C205.880588,133.936111 208.178185,135.960708 210.000445,140.009962 C211.822705,144.059215 212.945094,149.482242 213.367647,156.279204 L209.564689,156.279204 C209.300594,152.013026 208.580944,148.668826 207.405718,146.246504 C206.230493,143.824183 204.771386,142.61304 203.028355,142.61304 C201.760696,142.61304 200.605295,143.408417 199.562118,144.999196 C198.51894,146.589974 197.680449,149.030336 197.04662,152.320355 C196.41279,155.610373 196.09588,159.677643 196.09588,164.522286 C196.09588,169.366929 196.41279,173.434199 197.04662,176.724218 C197.680449,180.014237 198.51894,182.454599 199.562118,184.045377 C200.605295,185.636155 201.760696,186.431532 203.028355,186.431532 C204.771386,186.431532 206.230493,185.202313 207.405718,182.743838 C208.580944,180.285362 209.300594,176.923086 209.564689,172.656907 L213.367647,172.656907 C212.945094,179.526177 211.822705,184.967281 210.000445,188.98038 C208.178185,192.99348 205.880588,195 203.107584,195 C201.021228,195 199.172587,193.770781 197.561603,191.312305 C195.95062,188.85383 194.689583,185.328862 193.778453,180.737298 C192.867323,176.145733 192.411765,170.740783 192.411765,164.522286 C192.411765,158.303789 192.867323,152.880763 193.778453,148.253044 C194.689583,143.625326 195.95062,140.082282 197.561603,137.623806 C199.172587,135.16533 201.021228,133.936111 203.107584,133.936111 Z M228.997069,132.726894 C231.530119,132.726894 233.574998,134.971541 235.131768,139.460901 C236.688538,143.950262 237.466912,150.428714 237.466912,158.896452 L237.466912,193.825694 L233.86525,193.825694 L233.86525,159.77242 C233.86525,153.786606 233.311153,149.187817 232.202944,145.975917 C231.094735,142.764016 229.590759,141.15809 227.690972,141.15809 C225.712027,141.15809 224.128894,142.928259 222.941527,146.468649 C221.75416,150.009039 221.160486,155.173552 221.160486,161.962341 L221.160486,193.825694 L217.558824,193.825694 L217.558824,112.798611 L221.160486,112.798611 L221.160486,147.946846 C221.71459,143.055998 222.697452,139.29667 224.109099,136.668752 C225.520747,134.040833 227.150054,132.726894 228.997069,132.726894 Z M251.630978,133.936111 C253.741653,133.936111 255.529104,135.382252 256.993384,138.274576 C258.457665,141.1669 259.480008,145.035325 260.060444,149.879968 L260.060444,134.695342 L263.661765,134.695342 L263.661765,194.240769 L260.060444,194.240769 L260.060444,179.056143 C259.480008,183.900786 258.457665,187.769211 256.993384,190.661535 C255.529104,193.55386 253.741653,195 251.630978,195 C249.704987,195 247.990089,193.770781 246.486233,191.312305 C244.982377,188.85383 243.801736,185.328862 242.944274,180.737298 C242.086813,176.145733 241.658088,170.740783 241.658088,164.522286 C241.658088,158.303789 242.086813,152.880763 242.944274,148.253044 C243.801736,143.625326 244.982377,140.082282 246.486233,137.623806 C247.990089,135.16533 249.704987,133.936111 251.630978,133.936111 Z M253.14439,142.15625 C250.936125,142.15625 249.168225,144.083708 247.840637,147.938682 C246.513049,151.793657 245.849265,157.107677 245.849265,163.880903 C245.849265,170.654129 246.513049,175.968149 247.840637,179.823123 C249.168225,183.678097 250.936125,185.605556 253.14439,185.605556 C254.56399,185.605556 255.832409,184.704874 256.949686,182.903484 C258.066963,181.102094 258.941055,178.562173 259.571988,175.283643 C260.202921,172.005114 260.518382,168.204238 260.518382,163.880903 C260.518382,159.557567 260.202921,155.738678 259.571988,152.424121 C258.941055,149.109563 258.066963,146.569642 256.949686,144.80428 C255.832409,143.038918 254.56399,142.15625 253.14439,142.15625 Z M279.378676,119.276573 C277.508937,119.203378 276.209103,120.118306 275.479136,122.021386 C274.749169,123.924466 274.384191,127.218209 274.384191,131.902713 L274.384191,133.549601 L279.378676,133.549601 L279.378676,142.333002 L274.384191,142.333002 L274.384191,193.825694 L270.888051,193.825694 L270.888051,142.333002 L267.852941,142.333002 L267.852941,133.549601 L270.888051,133.549601 L270.888051,131.134165 C270.888051,116.714676 273.718232,109.834413 279.378676,110.493172 L279.378676,119.276573 Z M293,185.061198 L293,193.825694 L290.302839,193.825694 C288.081637,193.825694 286.42237,192.36496 285.324991,189.443446 C284.227611,186.521933 283.678929,181.628471 283.678929,174.762915 L283.678929,142.334279 L280.426471,142.334279 L280.426471,133.679339 L283.678929,133.679339 L283.678929,118.670139 L287.328029,118.670139 L287.328029,133.679339 L292.960336,133.679339 L292.960336,142.334279 L287.328029,142.334279 L287.328029,174.982027 C287.328029,178.853033 287.585844,181.500614 288.10148,182.924852 C288.617116,184.34909 289.50955,185.061198 290.778809,185.061198 L293,185.061198 Z" id="inder" fill="#000000" fill-rule="nonzero"></path>
    </g>
</svg>