<?xml version="1.0" encoding="UTF-8"?>
<svg width="300px" height="200px" viewBox="0 0 300 200" version="1.1" xmlns="http://www.w3.org/2000/svg" xmlns:xlink="http://www.w3.org/1999/xlink">
    <!-- Generator: Sketch 55.2 (78181) - https://sketchapp.com -->
    <title>link_michelle-akanji</title>
    <desc>Created with Sketch.</desc>
    <g id="link_michelle-akanji" stroke="none" stroke-width="1" fill="none" fill-rule="evenodd">
        <path d="M52.400641,155.924855 L21.599359,155.924855 L15.7371795,171 L6,171 L31.9326923,107 L42.1666667,107 L68,171 L58.2628205,171 L52.400641,155.924855 Z M50,150 L37,116 L24,150 L50,150 Z M108.462651,171 L87.2096386,147.968919 L87.2096386,171 L78,171 L78,102 L87.2096386,102 L87.2096386,142.094595 L108.159036,119.809459 L119.392771,119.809459 L94.4963855,145.264865 L120,171 L108.462651,171 Z M150.381295,119 C155.753024,119 160.30214,120.255168 164.028777,122.765542 C167.755414,125.275915 170.357307,128.63349 171.834532,132.838366 L171.834532,119.65897 L181,119.65897 L181,171.34103 L171.834532,171.34103 L171.834532,158.161634 C170.357307,162.36651 167.755414,165.724085 164.028777,168.234458 C160.30214,170.744832 155.753024,172 150.381295,172 C145.479592,172 141.115127,170.933107 137.28777,168.79929 C133.460413,166.665472 130.455646,163.606 128.273381,159.620782 C126.091116,155.635563 125,150.944373 125,145.547069 C125,140.149766 126.091116,135.442886 128.273381,131.426288 C130.455646,127.40969 133.460413,124.334528 137.28777,122.20071 C141.115127,120.066893 145.479592,119 150.381295,119 Z M152.903226,127 C147.483844,127 143.145178,128.64136 139.887097,131.924129 C136.629016,135.206899 135,139.732144 135,145.5 C135,151.267856 136.629016,155.793101 139.887097,159.075871 C143.145178,162.35864 147.483844,164 152.903226,164 C156.387114,164 159.499986,163.233009 162.241935,161.699005 C164.983885,160.165001 167.129025,158.002087 168.677419,155.210199 C170.225814,152.418311 171,149.18161 171,145.5 C171,141.81839 170.225814,138.566349 168.677419,135.743781 C167.129025,132.921213 164.983885,130.758299 162.241935,129.254975 C159.499986,127.751651 156.387114,127 152.903226,127 Z M223.727634,119 C230.089495,119 235.225295,120.910375 239.135189,124.731183 C243.045083,128.55199 245,134.065675 245,141.272401 L245,171 L235.954274,171 L235.954274,142.017921 C235.954274,136.923511 234.562638,133.009572 231.779324,130.275986 C228.99601,127.5424 225.218712,126.175627 220.447316,126.175627 C215.477112,126.175627 211.501009,127.682183 208.518887,130.695341 C205.536764,133.708498 204.045726,138.103914 204.045726,143.88172 L204.045726,171 L195,171 L195,119.83871 L204.045726,119.83871 L204.045726,131.953405 C205.437383,127.790899 207.90588,124.591409 211.451292,122.354839 C214.996704,120.118268 219.088777,119 223.727634,119 Z M265.096774,111 C263.290314,111 261.822586,110.492565 260.693548,109.477679 C259.56451,108.462793 259,107.136913 259,105.5 C259,103.863087 259.56451,102.537207 260.693548,101.522321 C261.822586,100.507435 263.290314,100 265.096774,100 C266.838718,100 268.258059,100.507435 269.354839,101.522321 C270.451618,102.537207 271,103.863087 271,105.5 C271,107.136913 270.451618,108.462793 269.354839,109.477679 C268.258059,110.492565 266.838718,111 265.096774,111 Z M249,188.484549 L252.628141,188.484549 C254.919609,188.484549 256.590447,187.983524 257.640704,186.981459 C258.69096,185.979393 259.21608,184.25712 259.21608,181.814586 L259.21608,120 L268,120 L268,182.096415 C268,191.365518 263.226178,196 253.678392,196 L249,196 L249,188.484549 Z M282,105.5 C282,103.863087 282.548382,102.537207 283.645161,101.522321 C284.741941,100.507435 286.193539,100 288,100 C289.806461,100 291.258059,100.507435 292.354839,101.522321 C293.451618,102.537207 294,103.863087 294,105.5 C294,107.136913 293.451618,108.462793 292.354839,109.477679 C291.258059,110.492565 289.806461,111 288,111 C286.193539,111 284.741941,110.492565 283.645161,109.477679 C282.548382,108.462793 282,107.136913 282,105.5 Z M292,120 L292,172 L282,172 L282,120 L292,120 Z M15.6,7.82417582 L15.6,90.043956 L6,90.043956 L6,7.82417582 L15.6,7.82417582 Z M48.23311,25.989011 C54.6407976,25.989011 59.7909853,27.8557969 63.6838278,31.5894248 C67.5766702,35.3230527 69.9364552,40.346054 70.7632536,46.6585794 L61.771866,46.6585794 C61.3584668,42.8864606 59.9632655,39.7879808 57.5862201,37.3630473 C55.2091747,34.9381137 52.0226037,33.7256651 48.0264115,33.7256651 C44.650318,33.7256651 42.0149377,34.6301902 40.1201914,36.4392677 C38.2254451,38.2483451 37.2780861,40.6924875 37.2780861,43.7717682 C37.2780861,46.0812287 37.9154003,47.9480147 39.1900478,49.372182 C40.4646954,50.7963493 42.0493685,51.8740814 43.9441148,52.6054106 C45.8388611,53.3367397 48.4397921,54.1257936 51.7469856,54.9725958 C55.9498775,56.050344 59.343145,57.1473213 61.92689,58.2635606 C64.5106349,59.3797999 66.7153976,61.1696049 68.541244,63.6330295 C70.3670905,66.0964541 71.28,69.4066312 71.28,73.5636601 C71.28,78.7214553 69.5403045,82.9169124 66.0608612,86.1501571 C62.581418,89.3834019 57.9479715,91 52.1603828,91 C45.4081959,91 39.8962893,89.1909497 35.6244976,85.5727949 C31.3527059,81.95464 28.8378985,76.9123935 28.08,70.445904 L37.1747368,70.445904 C37.5192362,74.2950049 39.0177858,77.4127299 41.6704306,79.7991724 C44.3230755,82.185615 47.8196912,83.3788183 52.1603828,83.3788183 C55.3986765,83.3788183 57.9307086,82.455048 59.756555,80.6074796 C61.5824015,78.7599111 62.495311,76.3350139 62.495311,73.3327152 C62.495311,70.8692907 61.8407721,68.9062787 60.5316746,67.4436203 C59.2225772,65.980962 57.6034546,64.8647395 55.6742584,64.0949193 C53.7450621,63.3250991 51.0924571,62.5168 47.7163636,61.6699979 C43.5134718,60.5922496 40.1546537,59.5145175 37.6398086,58.4367693 C35.1249635,57.359021 32.9890997,55.6461968 31.2321531,53.2982453 C29.4752065,50.9502937 28.5967464,47.7748331 28.5967464,43.7717682 C28.5967464,38.460009 30.3536666,34.1683258 33.8675598,30.8965901 C37.381453,27.6248543 42.1699218,25.989011 48.23311,25.989011 Z M106.551367,25.989011 C111.984488,25.989011 116.585593,27.5286283 120.35482,30.607909 C124.124048,33.6871897 126.755676,37.8056659 128.249784,42.9634611 L128.249784,26.7973181 L137.52,26.7973181 L137.52,90.1916929 L128.249784,90.1916929 L128.249784,74.0255499 C126.755676,79.1833451 124.124048,83.3018213 120.35482,86.381102 C116.585593,89.4603827 111.984488,91 106.551367,91 C101.593644,91 97.1792999,89.6913253 93.3082014,87.0739367 C89.4371029,84.4565481 86.3979966,80.703731 84.1907914,75.8153729 C81.9835861,70.9270148 80.88,65.1726953 80.88,58.5522417 C80.88,51.9317882 81.9835861,46.1582235 84.1907914,41.2313743 C86.3979966,36.3045252 89.4371029,32.5324629 93.3082014,29.9150743 C97.1792999,27.2976857 101.593644,25.989011 106.551367,25.989011 Z M108.616774,34.5934066 C102.8361,34.5934066 98.2081894,36.6715527 94.7329032,40.8279072 C91.257617,44.9842617 89.52,50.7137298 89.52,58.0164835 C89.52,65.3192372 91.257617,71.0487054 94.7329032,75.2050599 C98.2081894,79.3614144 102.8361,81.4395604 108.616774,81.4395604 C112.332922,81.4395604 115.653319,80.4684641 118.578065,78.5262424 C121.50281,76.5840207 123.790959,73.8455291 125.442581,70.3106856 C127.094202,66.775842 127.92,62.6778157 127.92,58.0164835 C127.92,53.3551514 127.094202,49.2377031 125.442581,45.6640151 C123.790959,42.0903271 121.50281,39.3518356 118.578065,37.4484583 C115.653319,35.545081 112.332922,34.5934066 108.616774,34.5934066 Z M183.27827,25.4297189 C188.160745,25.4297189 192.508089,26.7496521 196.320432,29.3895582 C200.132776,32.0294643 203.125755,35.8339778 205.299459,40.8032129 C207.473164,45.7724479 208.56,51.5956828 208.56,58.2730924 C208.56,64.9505019 207.473164,70.7543261 205.299459,75.684739 C203.125755,80.6151518 200.132776,84.4002545 196.320432,87.0401606 C192.508089,89.6800667 188.160745,91 183.27827,91 C177.927613,91 173.396343,89.4277266 169.684324,86.2831325 C165.972306,83.1385385 163.414061,79.0040417 162.009514,73.8795181 L162.009514,90.184739 L152.88,90.184739 L152.88,4 L162.009514,4 L162.009514,42.5502008 C163.414061,37.4256772 165.972306,33.2911804 169.684324,30.1465863 C173.396343,27.0019923 177.927613,25.4297189 183.27827,25.4297189 Z M180.771475,34.5934066 C177.133923,34.5934066 173.839586,35.545081 170.888365,37.4484583 C167.937143,39.3518356 165.637971,42.0903271 163.990777,45.6640151 C162.343584,49.2377031 161.52,53.3551514 161.52,58.0164835 C161.52,62.6778157 162.343584,66.775842 163.990777,70.3106856 C165.637971,73.8455291 167.937143,76.5840207 170.888365,78.5262424 C173.839586,80.4684641 177.133923,81.4395604 180.771475,81.4395604 C186.605284,81.4395604 191.255103,79.3614144 194.721072,75.2050599 C198.187041,71.0487054 199.92,65.3192372 199.92,58.0164835 C199.92,50.7137298 198.187041,44.9842617 194.721072,40.8279072 C191.255103,36.6715527 186.605284,34.5934066 180.771475,34.5934066 Z M271.92,54.9725958 C271.92,57.2050743 271.785265,59.1295959 271.515789,60.7462183 L227.153684,60.7462183 C227.35579,67.9825279 229.157878,73.4096788 232.56,77.0278336 C235.962122,80.6459885 240.122081,82.4550387 245.04,82.4550387 C249.486338,82.4550387 253.208406,81.1656093 256.206316,78.5867117 C259.204226,76.0078141 261.039997,72.5629205 261.713684,68.2519275 L271.515789,68.2519275 C270.842102,72.6399025 269.34317,76.5659265 267.018947,80.0301173 C264.694725,83.4943081 261.680019,86.1886383 257.974737,88.1131888 C254.269455,90.0377392 250.092655,91 245.444211,91 C240.122079,91 235.406336,89.6913253 231.296842,87.0739367 C227.187348,84.4565481 223.970538,80.703731 221.646316,75.8153729 C219.322094,70.9270148 218.16,65.1726953 218.16,58.5522417 C218.16,51.9317882 219.322094,46.1582235 221.646316,41.2313743 C223.970538,36.3045252 227.187348,32.5324629 231.296842,29.9150743 C235.406336,27.2976857 240.122079,25.989011 245.444211,25.989011 C250.833711,25.989011 255.532612,27.2976857 259.541053,29.9150743 C263.549494,32.5324629 266.614726,36.0350921 268.736842,40.4230672 C270.858958,44.8110422 271.92,49.6608366 271.92,54.9725958 Z M263.244059,55.6263736 C263.451718,50.7399023 262.75953,46.6545531 261.167474,43.3702036 C259.575418,40.085854 257.395026,37.642655 254.626233,36.0405332 C251.85744,34.4384115 248.846422,33.6373626 245.59309,33.6373626 C240.401603,33.6373626 236.040819,35.4998012 232.510607,39.2247343 C228.980396,42.9496673 227.076879,48.4168258 226.8,55.6263736 L263.244059,55.6263736 Z M294,4 L294,90.043956 L284.4,90.043956 L284.4,4 L294,4 Z" id="Akanji" fill="#000000" fill-rule="nonzero"></path>
    </g>
</svg>