<?xml version="1.0" encoding="UTF-8"?>
<svg width="300px" height="200px" viewBox="0 0 300 200" version="1.1" xmlns="http://www.w3.org/2000/svg" xmlns:xlink="http://www.w3.org/1999/xlink">
    <!-- Generator: Sketch 55.2 (78181) - https://sketchapp.com -->
    <title>ponsyrus</title>
    <desc>Created with Sketch.</desc>
    <g id="ponsyrus" stroke="none" stroke-width="1" fill="none" fill-rule="evenodd">
        <path d="M13.9492473,66.8362411 L13.9492473,108.55 L8,108.55 L8,5 L22.6443011,5 C27.9180192,5 31.8623525,7.76620165 34.4774194,13.2986879 C37.0924862,18.8311742 38.4,26.3953894 38.4,35.9915603 C38.4,45.6856513 37.0489024,53.2498664 34.3466667,58.6844326 C31.6444309,64.1189988 27.7436814,66.8362411 22.6443011,66.8362411 L13.9492473,66.8362411 Z M22.6793594,56.3 C26.233707,56.3 28.7923706,54.569534 30.355427,51.1085502 C31.9184835,47.6475663 32.7,42.7528197 32.7,36.4241636 C32.7,29.8977369 31.9184835,24.9288275 30.355427,21.5172862 C28.7923706,18.105745 26.233707,16.4 22.6793594,16.4 L14.65,16.4 L14.65,56.3 L22.6793594,56.3 Z M61.2327586,25.9 C64.6833506,25.9 67.7735496,27.5446254 70.5034483,30.8339254 C73.233347,34.1232254 75.3735555,38.8636162 76.9241379,45.0552398 C78.4747204,51.2468634 79.25,58.5025635 79.25,66.8225577 C79.25,75.142552 78.4747204,82.3740664 76.9241379,88.5173179 C75.3735555,94.6605695 73.233347,99.3767746 70.5034483,102.666075 C67.7735496,105.955375 64.6833506,107.6 61.2327586,107.6 C57.7821667,107.6 54.6919677,105.955375 51.962069,102.666075 C49.2321703,99.3767746 47.0810423,94.6605695 45.5086207,88.5173179 C43.936199,82.3740664 43.15,75.142552 43.15,66.8225577 C43.15,58.5025635 43.936199,51.2468634 45.5086207,45.0552398 C47.0810423,38.8636162 49.2321703,34.1232254 51.962069,30.8339254 C54.6919677,27.5446254 57.7821667,25.9 61.2327586,25.9 Z M62.625,37.3 C60.5052262,37.3 58.5477093,38.3717842 56.7523907,40.5153846 C54.9570721,42.6589851 53.5078607,45.9474137 52.4047131,50.3807692 C51.3015655,54.8141247 50.75,60.2948392 50.75,66.8230769 C50.75,73.2538783 51.3015655,78.6858753 52.4047131,83.1192308 C53.5078607,87.5525863 54.9570721,90.8410149 56.7523907,92.9846154 C58.5477093,95.1282158 60.5052262,96.2 62.625,96.2 C64.7447738,96.2 66.7022907,95.1282158 68.4976093,92.9846154 C70.2929279,90.8410149 71.7421393,87.5525863 72.8452869,83.1192308 C73.9484345,78.6858753 74.5,73.2538783 74.5,66.8230769 C74.5,60.2948392 73.9484345,54.8141247 72.8452869,50.3807692 C71.7421393,45.9474137 70.2929279,42.6589851 68.4976093,40.5153846 C66.7022907,38.3717842 64.7447738,37.3 62.625,37.3 Z M106.358052,25.9 C110.467814,25.9 113.785541,28.9014933 116.311332,34.9045699 C118.837123,40.9076465 120.1,49.570493 120.1,60.8933692 L120.1,107.6 L114.256461,107.6 L114.256461,62.0646953 C114.256461,54.0605932 113.357464,47.9111923 111.559443,43.6163082 C109.761422,39.3214242 107.321288,37.1740143 104.238966,37.1740143 C101.028215,37.1740143 98.4596518,39.5410456 96.5332008,44.2751792 C94.6067498,49.0093128 93.6435388,55.9151876 93.6435388,64.9930108 L93.6435388,107.6 L87.8,107.6 L87.8,27.2177419 L93.6435388,27.2177419 L93.6435388,46.2517921 C94.5425492,39.711855 96.1371986,34.6849638 98.4275348,31.1709677 C100.717871,27.6569717 103.36135,25.9 106.358052,25.9 Z M140.552273,25.9 C144.638657,25.9 147.923094,28.2460097 150.405682,32.9380995 C152.88827,37.6301892 154.393179,43.9426483 154.920455,51.8756661 L149.186364,51.8756661 C148.922726,47.1352042 148.032962,43.2413119 146.517045,40.1938721 C145.001129,37.1464324 142.968952,35.6227353 140.420455,35.6227353 C138.267413,35.6227353 136.586748,36.7594617 135.378409,39.0329485 C134.17007,41.3064353 133.565909,44.378015 133.565909,48.2477798 C133.565909,51.1501033 133.972344,53.496113 134.785227,55.2858792 C135.59811,57.0756454 136.608706,58.4300428 137.817045,59.3491119 C139.025385,60.268181 140.68408,61.2597934 142.793182,62.3239787 C145.473498,63.6783964 147.637492,65.0569794 149.285227,66.4597691 C150.932963,67.8625588 152.339009,70.1118258 153.503409,73.2076377 C154.667809,76.3034495 155.25,80.4633842 155.25,85.6875666 C155.25,92.1694226 154.140541,97.441898 151.921591,101.505151 C149.70264,105.568404 146.747746,107.6 143.056818,107.6 C138.750736,107.6 135.23562,105.326547 132.511364,100.779574 C129.787108,96.2326001 128.183336,89.8959554 127.7,81.7694494 L133.5,81.7694494 C133.719698,86.6066553 134.67537,90.5247334 136.367045,93.5238011 C138.058721,96.5228688 140.288623,98.0223801 143.056818,98.0223801 C145.12198,98.0223801 146.736737,96.8614681 147.901136,94.5396092 C149.065536,92.2177504 149.647727,89.1703563 149.647727,85.3973357 C149.647727,82.3015239 149.230307,79.8345859 148.395455,77.9964476 C147.560602,76.1583093 146.528036,74.7555407 145.297727,73.7880995 C144.067418,72.8206583 142.375768,71.8048603 140.222727,70.740675 C137.542411,69.3862573 135.400387,68.0318599 133.796591,66.6774423 C132.192795,65.3230246 130.830687,63.1705002 129.710227,60.2198046 C128.589767,57.269109 128.029545,53.2784739 128.029545,48.2477798 C128.029545,41.5724355 129.149989,36.1790318 131.390909,32.0674067 C133.631829,27.9557817 136.685587,25.9 140.552273,25.9 Z M165.793956,28.75 L177.562821,91.1470334 L188.472161,28.75 L195.15,28.75 L173.595788,145.6 L166.785714,145.6 L174.323077,106.746292 L159.05,28.75 L165.793956,28.75 Z M206.730952,43.4698925 C207.894224,37.9060654 209.596021,33.5868433 211.836395,30.5120968 C214.076769,27.4373502 216.747944,25.9 219.85,25.9 L219.85,40.3951613 L218.040476,40.3951613 C214.722999,40.3951613 212.008741,42.3229497 209.897619,46.1785842 C207.786497,50.0342188 206.730952,56.4032411 206.730952,65.2858423 L206.730952,107.6 L200.85,107.6 L200.85,27.2177419 L206.730952,27.2177419 L206.730952,43.4698925 Z M256.9,28.75 L256.9,109.132258 L251.056461,109.132258 L251.056461,90.2446237 C250.157451,96.7845608 248.562801,101.78705 246.272465,105.25224 C243.982129,108.717431 241.317245,110.45 238.277734,110.45 C234.210782,110.45 230.914459,107.448507 228.388668,101.44543 C225.862877,95.4423535 224.6,86.8283118 224.6,75.6030466 L224.6,28.75 L230.443539,28.75 L230.443539,74.2853047 C230.443539,82.2894068 231.342536,88.4632101 233.140557,92.8068996 C234.938578,97.1505892 237.378712,99.3224014 240.461034,99.3224014 C243.671785,99.3224014 246.240348,96.9553701 248.166799,92.2212366 C250.09325,87.487103 251.056461,80.5812282 251.056461,71.503405 L251.056461,28.75 L256.9,28.75 Z M278.302273,25.9 C282.388657,25.9 285.673094,28.2460097 288.155682,32.9380995 C290.63827,37.6301892 292.143179,43.9426483 292.670455,51.8756661 L286.936364,51.8756661 C286.672726,47.1352042 285.782962,43.2413119 284.267045,40.1938721 C282.751129,37.1464324 280.718952,35.6227353 278.170455,35.6227353 C276.017413,35.6227353 274.336748,36.7594617 273.128409,39.0329485 C271.92007,41.3064353 271.315909,44.378015 271.315909,48.2477798 C271.315909,51.1501033 271.722344,53.496113 272.535227,55.2858792 C273.34811,57.0756454 274.358706,58.4300428 275.567045,59.3491119 C276.775385,60.268181 278.43408,61.2597934 280.543182,62.3239787 C283.223498,63.6783964 285.387492,65.0569794 287.035227,66.4597691 C288.682963,67.8625588 290.089009,70.1118258 291.253409,73.2076377 C292.417809,76.3034495 293,80.4633842 293,85.6875666 C293,92.1694226 291.890541,97.441898 289.671591,101.505151 C287.45264,105.568404 284.497746,107.6 280.806818,107.6 C276.500736,107.6 272.98562,105.326547 270.261364,100.779574 C267.537108,96.2326001 265.933336,89.8959554 265.45,81.7694494 L271.25,81.7694494 C271.469698,86.6066553 272.42537,90.5247334 274.117045,93.5238011 C275.808721,96.5228688 278.038623,98.0223801 280.806818,98.0223801 C282.87198,98.0223801 284.486737,96.8614681 285.651136,94.5396092 C286.815536,92.2177504 287.397727,89.1703563 287.397727,85.3973357 C287.397727,82.3015239 286.980307,79.8345859 286.145455,77.9964476 C285.310602,76.1583093 284.278036,74.7555407 283.047727,73.7880995 C281.817418,72.8206583 280.125768,71.8048603 277.972727,70.740675 C275.292411,69.3862573 273.150387,68.0318599 271.546591,66.6774423 C269.942795,65.3230246 268.580687,63.1705002 267.460227,60.2198046 C266.339767,57.269109 265.779545,53.2784739 265.779545,48.2477798 C265.779545,41.5724355 266.899989,36.1790318 269.140909,32.0674067 C271.381829,27.9557817 274.435587,25.9 278.302273,25.9 Z M20.258788,141.489796 C23.1809555,141.489796 25.6338765,143.00305 27.6176244,146.029605 C29.6013723,149.056159 30.9377093,153.174196 31.6266757,158.383838 L28.2056186,158.383838 C27.6116821,155.208437 26.619823,152.65327 25.2300116,150.718259 C23.8402002,148.783249 22.1950208,147.815759 20.294424,147.815759 C18.5838869,147.815759 17.0515537,148.646808 15.6973785,150.308932 C14.3432033,151.971057 13.2800729,154.340168 12.5079555,157.416338 C11.735838,160.492508 11.3497851,164.114395 11.3497851,168.28211 C11.3497851,172.549055 11.7417773,176.232961 12.5257735,179.333939 C13.3097696,182.434917 14.3966571,184.816432 15.7864685,186.478556 C17.1762799,188.14068 18.7739451,188.971729 20.5795121,188.971729 C22.123747,188.971729 23.5372946,188.277121 24.8201975,186.887883 C26.1031003,185.498645 27.1543521,183.476838 27.9739845,180.822401 C28.7936168,178.167964 29.2865767,175.054629 29.452879,171.482303 L19.5817038,171.482303 L19.5817038,166.421532 L32.1968519,166.421532 L32.1968519,172.673072 C31.9830347,176.840786 31.36535,180.611518 30.3437793,183.985382 C29.3222085,187.359246 27.9442965,190.038451 26.2100019,192.023076 C24.4757073,194.007702 22.5038678,195 20.294424,195 C17.8711631,195 15.7330238,193.871261 13.8799419,191.613749 C12.02686,189.356237 10.583616,186.205691 9.5501665,182.162016 C8.516717,178.118341 8,173.491752 8,168.28211 C8,163.072467 8.516717,158.445878 9.5501665,154.402203 C10.583616,150.358528 12.02686,147.195578 13.8799419,144.913258 C15.7330238,142.630939 17.8592845,141.489796 20.258788,141.489796 Z M54.2896296,171.792547 C54.2896296,173.230623 54.2421698,174.470325 54.1472487,175.51169 L38.5209392,175.51169 C38.59213,180.17304 39.2269054,183.668999 40.4252844,185.999674 C41.6236634,188.330348 43.088986,189.495668 44.8212963,189.495668 C46.3874946,189.495668 47.6985728,188.665068 48.7545701,187.003842 C49.8105674,185.342617 50.4572078,183.12355 50.6945106,180.346576 L54.1472487,180.346576 C53.9099459,183.173139 53.3819552,185.702131 52.5632606,187.933628 C51.744566,190.165125 50.682652,191.900708 49.3774868,193.140428 C48.0723215,194.380149 46.6010664,195 44.9636772,195 C43.0889853,195 41.4278908,194.157003 39.9803439,192.470983 C38.532797,190.784963 37.3996932,188.367544 36.5809987,185.218654 C35.7623041,182.069763 35.352963,178.363055 35.352963,174.098416 C35.352963,169.833777 35.7623041,166.114671 36.5809987,162.940987 C37.3996932,159.767302 38.532797,157.337486 39.9803439,155.651466 C41.4278908,153.965446 43.0889853,153.122449 44.9636772,153.122449 C46.8620994,153.122449 48.5172615,153.965446 49.929213,155.651466 C51.3411645,157.337486 52.4208759,159.593744 53.1683796,162.420307 C53.9158834,165.24687 54.2896296,168.370918 54.2896296,171.792547 Z M51.1210804,172.897959 C51.1929441,169.795903 50.9534022,167.202419 50.4024476,165.117431 C49.851493,163.032442 49.0969361,161.481437 48.1387542,160.464369 C47.1805722,159.447302 46.138565,158.938776 45.0127013,158.938776 C43.2161102,158.938776 41.7069963,160.121099 40.4853144,162.485781 C39.2636324,164.850463 38.6048923,168.321155 38.5090741,172.897959 L51.1210804,172.897959 Z M68.7734397,153.122449 C71.0490302,153.122449 72.8860679,154.660946 74.2846079,157.737986 C75.6831479,160.815025 76.3824074,165.255402 76.3824074,171.05925 L76.3824074,195 L73.1468183,195 L73.1468183,171.659645 C73.1468183,167.556925 72.6490404,164.404883 71.6534696,162.203423 C70.6578987,160.001964 69.3067871,158.901251 67.6000942,158.901251 C65.8222892,158.901251 64.4000664,160.114537 63.3333834,162.541145 C62.2667004,164.967754 61.7333668,168.507548 61.7333668,173.160632 L61.7333668,195 L58.4977778,195 L58.4977778,153.797893 L61.7333668,153.797893 L61.7333668,163.554312 C62.2311523,160.20209 63.1141155,157.62542 64.3822832,155.824226 C65.6504508,154.023032 67.114155,153.122449 68.7734397,153.122449 Z M90.0760728,153.122449 C91.8861202,153.122449 93.5071193,153.965446 94.9391188,155.651466 C96.3711183,157.337486 97.493789,159.767302 98.3071648,162.940987 C99.1205405,166.114671 99.5272222,169.833777 99.5272222,174.098416 C99.5272222,178.363055 99.1205405,182.069763 98.3071648,185.218654 C97.493789,188.367544 96.3711183,190.784963 94.9391188,192.470983 C93.5071193,194.157003 91.8861202,195 90.0760728,195 C88.2660254,195 86.6450263,194.157003 85.2130268,192.470983 C83.7810273,190.784963 82.6526286,188.367544 81.8277969,185.218654 C81.0029652,182.069763 80.5905556,178.363055 80.5905556,174.098416 C80.5905556,169.833777 81.0029652,166.114671 81.8277969,162.940987 C82.6526286,159.767302 83.7810273,157.337486 85.2130268,155.651466 C86.6450263,153.965446 88.2660254,153.122449 90.0760728,153.122449 Z M90.0588889,158.938776 C88.9321113,158.938776 87.8915824,159.489132 86.9372708,160.589862 C85.9829592,161.690591 85.2126228,163.379185 84.6262386,165.655695 C84.0398544,167.932204 83.7466667,170.746527 83.7466667,174.098749 C83.7466667,177.400938 84.0398544,180.190245 84.6262386,182.466754 C85.2126228,184.743264 85.9829592,186.431858 86.9372708,187.532587 C87.8915824,188.633317 88.9321113,189.183673 90.0588889,189.183673 C91.1856664,189.183673 92.2261954,188.633317 93.180507,187.532587 C94.1348186,186.431858 94.9051549,184.743264 95.4915392,182.466754 C96.0779234,180.190245 96.3711111,177.400938 96.3711111,174.098749 C96.3711111,170.746527 96.0779234,167.932204 95.4915392,165.655695 C94.9051549,163.379185 94.1348186,161.690591 93.180507,160.589862 C92.2261954,159.489132 91.1856664,158.938776 90.0588889,158.938776 Z M109.554293,153.122449 C111.738917,153.122449 113.494811,154.32496 114.822029,156.730018 C116.149246,159.135076 116.953786,162.370698 117.235673,166.436981 L114.170168,166.436981 C114.029225,164.007129 113.553548,162.011209 112.743123,160.449161 C111.932698,158.887113 110.846275,158.106101 109.483822,158.106101 C108.332783,158.106101 107.434282,158.688761 106.788291,159.854098 C106.1423,161.019435 105.81931,162.593857 105.81931,164.57741 C105.81931,166.065074 106.036594,167.267585 106.47117,168.184978 C106.905746,169.102372 107.446021,169.796605 108.092012,170.267699 C108.738003,170.738792 109.624759,171.24707 110.752306,171.792547 C112.185232,172.486791 113.342125,173.193421 114.223022,173.912459 C115.103919,174.631497 115.855606,175.78442 116.478106,177.371262 C117.100606,178.958104 117.411852,181.090392 117.411852,183.768188 C117.411852,187.090639 116.818724,189.793189 115.632449,191.87592 C114.446175,193.95865 112.866458,195 110.893249,195 C108.591173,195 106.711955,193.83468 105.255539,191.504006 C103.799123,189.173331 102.94173,185.925312 102.683333,181.759851 L105.784074,181.759851 C105.901527,184.239292 106.412439,186.247609 107.316827,187.784862 C108.221214,189.322116 109.413343,190.090731 110.893249,190.090731 C111.997306,190.090731 112.860572,189.495674 113.483072,188.305542 C114.105573,187.115411 114.416818,185.553386 114.416818,183.619422 C114.416818,182.03258 114.193661,180.768084 113.74734,179.825896 C113.301019,178.883709 112.748999,178.164681 112.091263,177.668793 C111.433526,177.172905 110.529153,176.65223 109.378114,176.106753 C107.945189,175.41251 106.800041,174.718277 105.942635,174.024033 C105.085229,173.32979 104.357032,172.226455 103.758022,170.713996 C103.159012,169.201537 102.859512,167.156028 102.859512,164.57741 C102.859512,161.155781 103.458513,158.391246 104.656532,156.283721 C105.854551,154.176196 107.487122,153.122449 109.554293,153.122449 Z M127.438923,153.122449 C129.623546,153.122449 131.379441,154.32496 132.706658,156.730018 C134.033876,159.135076 134.838416,162.370698 135.120303,166.436981 L132.054798,166.436981 C131.913855,164.007129 131.438177,162.011209 130.627753,160.449161 C129.817328,158.887113 128.730905,158.106101 127.368451,158.106101 C126.217413,158.106101 125.318912,158.688761 124.672921,159.854098 C124.02693,161.019435 123.703939,162.593857 123.703939,164.57741 C123.703939,166.065074 123.921224,167.267585 124.3558,168.184978 C124.790375,169.102372 125.330651,169.796605 125.976641,170.267699 C126.622632,170.738792 127.509388,171.24707 128.636936,171.792547 C130.069861,172.486791 131.226755,173.193421 132.107652,173.912459 C132.988548,174.631497 133.740235,175.78442 134.362736,177.371262 C134.985236,178.958104 135.296481,181.090392 135.296481,183.768188 C135.296481,187.090639 134.703353,189.793189 133.517079,191.87592 C132.330805,193.95865 130.751087,195 128.777879,195 C126.475802,195 124.596584,193.83468 123.140168,191.504006 C121.683753,189.173331 120.826359,185.925312 120.567963,181.759851 L123.668704,181.759851 C123.786157,184.239292 124.297069,186.247609 125.201456,187.784862 C126.105843,189.322116 127.297972,190.090731 128.777879,190.090731 C129.881936,190.090731 130.745202,189.495674 131.367702,188.305542 C131.990202,187.115411 132.301448,185.553386 132.301448,183.619422 C132.301448,182.03258 132.078291,180.768084 131.63197,179.825896 C131.185649,178.883709 130.633628,178.164681 129.975892,177.668793 C129.318156,177.172905 128.413782,176.65223 127.262744,176.106753 C125.829819,175.41251 124.68467,174.718277 123.827264,174.024033 C122.969858,173.32979 122.241661,172.226455 121.642652,170.713996 C121.043642,169.201537 120.744141,167.156028 120.744141,164.57741 C120.744141,161.155781 121.343142,158.391246 122.541162,156.283721 C123.739181,154.176196 125.371752,153.122449 127.438923,153.122449 Z M157.389259,171.792547 C157.389259,173.230623 157.341799,174.470325 157.246878,175.51169 L141.620569,175.51169 C141.69176,180.17304 142.326535,183.668999 143.524914,185.999674 C144.723293,188.330348 146.188616,189.495668 147.920926,189.495668 C149.487124,189.495668 150.798202,188.665068 151.8542,187.003842 C152.910197,185.342617 153.556837,183.12355 153.79414,180.346576 L157.246878,180.346576 C157.009576,183.173139 156.481585,185.702131 155.66289,187.933628 C154.844196,190.165125 153.782282,191.900708 152.477116,193.140428 C151.171951,194.380149 149.700696,195 148.063307,195 C146.188615,195 144.52752,194.157003 143.079974,192.470983 C141.632427,190.784963 140.499323,188.367544 139.680628,185.218654 C138.861934,182.069763 138.452593,178.363055 138.452593,174.098416 C138.452593,169.833777 138.861934,166.114671 139.680628,162.940987 C140.499323,159.767302 141.632427,157.337486 143.079974,155.651466 C144.52752,153.965446 146.188615,153.122449 148.063307,153.122449 C149.961729,153.122449 151.616891,153.965446 153.028843,155.651466 C154.440794,157.337486 155.520506,159.593744 156.268009,162.420307 C157.015513,165.24687 157.389259,168.370918 157.389259,171.792547 Z M154.22071,172.897959 C154.292574,169.795903 154.053032,167.202419 153.502077,165.117431 C152.951123,163.032442 152.196566,161.481437 151.238384,160.464369 C150.280202,159.447302 149.238195,158.938776 148.112331,158.938776 C146.31574,158.938776 144.806626,160.121099 143.584944,162.485781 C142.363262,164.850463 141.704522,168.321155 141.608704,172.897959 L154.22071,172.897959 Z M171.873069,153.122449 C174.14866,153.122449 175.985698,154.660946 177.384238,157.737986 C178.782778,160.815025 179.482037,165.255402 179.482037,171.05925 L179.482037,195 L176.246448,195 L176.246448,171.659645 C176.246448,167.556925 175.74867,164.404883 174.753099,162.203423 C173.757528,160.001964 172.406417,158.901251 170.699724,158.901251 C168.921919,158.901251 167.499696,160.114537 166.433013,162.541145 C165.36633,164.967754 164.832996,168.507548 164.832996,173.160632 L164.832996,195 L161.597407,195 L161.597407,153.797893 L164.832996,153.797893 L164.832996,163.554312 C165.330782,160.20209 166.213745,157.62542 167.481913,155.824226 C168.75008,154.023032 170.213785,153.122449 171.873069,153.122449 Z M190.561145,153.122449 C192.745768,153.122449 194.501663,154.32496 195.82888,156.730018 C197.156098,159.135076 197.960638,162.370698 198.242525,166.436981 L195.17702,166.436981 C195.036077,164.007129 194.5604,162.011209 193.749975,160.449161 C192.93955,158.887113 191.853127,158.106101 190.490673,158.106101 C189.339635,158.106101 188.441134,158.688761 187.795143,159.854098 C187.149152,161.019435 186.826162,162.593857 186.826162,164.57741 C186.826162,166.065074 187.043446,167.267585 187.478022,168.184978 C187.912598,169.102372 188.452873,169.796605 189.098864,170.267699 C189.744855,170.738792 190.631611,171.24707 191.759158,171.792547 C193.192083,172.486791 194.348977,173.193421 195.229874,173.912459 C196.11077,174.631497 196.862458,175.78442 197.484958,177.371262 C198.107458,178.958104 198.418704,181.090392 198.418704,183.768188 C198.418704,187.090639 197.825576,189.793189 196.639301,191.87592 C195.453027,193.95865 193.87331,195 191.900101,195 C189.598024,195 187.718806,193.83468 186.262391,191.504006 C184.805975,189.173331 183.948582,185.925312 183.690185,181.759851 L186.790926,181.759851 C186.908379,184.239292 187.419291,186.247609 188.323678,187.784862 C189.228066,189.322116 190.420195,190.090731 191.900101,190.090731 C193.004158,190.090731 193.867424,189.495674 194.489924,188.305542 C195.112425,187.115411 195.42367,185.553386 195.42367,183.619422 C195.42367,182.03258 195.200513,180.768084 194.754192,179.825896 C194.307871,178.883709 193.755851,178.164681 193.098114,177.668793 C192.440378,177.172905 191.536005,176.65223 190.384966,176.106753 C188.952041,175.41251 187.806893,174.718277 186.949487,174.024033 C186.09208,173.32979 185.363883,172.226455 184.764874,170.713996 C184.165864,169.201537 183.866364,167.156028 183.866364,164.57741 C183.866364,161.155781 184.465364,158.391246 185.663384,156.283721 C186.861403,154.176196 188.493974,153.122449 190.561145,153.122449 Z M211.240032,153.122449 C213.745842,153.122449 215.822053,154.510915 217.468728,157.287889 C219.115403,160.064863 220.129644,163.783969 220.511481,168.445318 L217.07496,168.445318 C216.836311,165.519578 216.186004,163.226129 215.124018,161.564904 C214.062032,159.903678 212.743518,159.073078 211.168438,159.073078 C210.022925,159.073078 208.978853,159.618547 208.036192,160.709501 C207.09353,161.800455 206.335832,163.474053 205.763076,165.730344 C205.190319,167.986635 204.903945,170.775965 204.903945,174.098416 C204.903945,177.420867 205.190319,180.210196 205.763076,182.466488 C206.335832,184.722779 207.09353,186.396377 208.036192,187.487331 C208.978853,188.578285 210.022925,189.123754 211.168438,189.123754 C212.743518,189.123754 214.062032,188.280757 215.124018,186.594737 C216.186004,184.908717 216.836311,182.602871 217.07496,179.677131 L220.511481,179.677131 C220.129644,184.388069 219.115403,188.119572 217.468728,190.871751 C215.822053,193.623931 213.745842,195 211.240032,195 C209.354709,195 207.684194,194.157003 206.228438,192.470983 C204.772682,190.784963 203.633152,188.367544 202.809815,185.218654 C201.986477,182.069763 201.574815,178.363055 201.574815,174.098416 C201.574815,169.833777 201.986477,166.114671 202.809815,162.940987 C203.633152,159.767302 204.772682,157.337486 206.228438,155.651466 C207.684194,153.965446 209.354709,153.122449 211.240032,153.122449 Z M234.995292,152.609983 C237.270882,152.609983 239.10792,154.124571 240.50646,157.153792 C241.905,160.183013 242.604259,164.554384 242.604259,170.268036 L242.604259,193.836735 L239.36867,193.836735 L239.36867,170.859101 C239.36867,166.82014 238.870892,163.717082 237.875321,161.549835 C236.879751,159.382587 235.528639,158.29898 233.821946,158.29898 C232.044141,158.29898 230.621918,159.493411 229.555235,161.882308 C228.488552,164.271206 227.955219,167.755989 227.955219,172.336762 L227.955219,193.836735 L224.71963,193.836735 L224.71963,139.163265 L227.955219,139.163265 L227.955219,162.87973 C228.453004,159.579603 229.335967,157.042976 230.604135,155.269774 C231.872303,153.496571 233.336007,152.609983 234.995292,152.609983 Z M254.819999,153.122449 C256.73739,153.122449 258.361156,154.114211 259.691346,156.097763 C261.021537,158.081316 261.950259,160.734279 262.477542,164.05673 L262.477542,153.643129 L265.749074,153.643129 L265.749074,194.47932 L262.477542,194.47932 L262.477542,184.065719 C261.950259,187.38817 261.021537,190.041133 259.691346,192.024686 C258.361156,194.008238 256.73739,195 254.819999,195 C253.070379,195 251.512522,194.157003 250.146381,192.470983 C248.78024,190.784963 247.707715,188.367544 246.928775,185.218654 C246.149835,182.069763 245.76037,178.363055 245.76037,174.098416 C245.76037,169.833777 246.149835,166.114671 246.928775,162.940987 C247.707715,159.767302 248.78024,157.337486 250.146381,155.651466 C251.512522,153.965446 253.070379,153.122449 254.819999,153.122449 Z M256.246804,158.938776 C254.346341,158.938776 252.824861,160.280472 251.682321,162.963905 C250.53978,165.647338 249.968519,169.346408 249.968519,174.061224 C249.968519,178.776041 250.53978,182.475111 251.682321,185.158544 C252.824861,187.841977 254.346341,189.183673 256.246804,189.183673 C257.468531,189.183673 258.56015,188.556713 259.521694,187.302772 C260.483238,186.048831 261.235493,184.280801 261.778483,181.998629 C262.321472,179.716457 262.592963,177.070682 262.592963,174.061224 C262.592963,171.051767 262.321472,168.393452 261.778483,166.086202 C261.235493,163.778951 260.483238,162.010921 259.521694,160.782059 C258.56015,159.553197 257.468531,158.938776 256.246804,158.938776 Z M279.425556,144.034309 C277.718909,143.984268 276.532457,144.609762 275.866164,145.910807 C275.19987,147.211852 274.866728,149.463627 274.866728,152.6662 L274.866728,153.792099 L279.425556,153.792099 L279.425556,159.796894 L274.866728,159.796894 L274.866728,195 L271.675549,195 L271.675549,159.796894 L268.905185,159.796894 L268.905185,153.792099 L271.675549,153.792099 L271.675549,152.140781 C271.675549,142.282861 274.258859,137.579153 279.425556,138.029514 L279.425556,144.034309 Z M292.05,189.031058 L292.05,195 L289.567591,195 C287.523244,195 285.996091,194.005186 284.986086,192.015529 C283.976081,190.025872 283.471086,186.693246 283.471086,182.017552 L283.471086,159.932469 L280.477593,159.932469 L280.477593,154.038139 L283.471086,154.038139 L283.471086,143.816327 L286.82964,143.816327 L286.82964,154.038139 L292.013494,154.038139 L292.013494,159.932469 L286.82964,159.932469 L286.82964,182.166776 C286.82964,184.803071 287.066926,186.606171 287.541507,187.576129 C288.016087,188.546087 288.837465,189.031058 290.005663,189.031058 L292.05,189.031058 Z" id="Ponsyrus" fill="#000000" fill-rule="nonzero"></path>
    </g>
</svg>