<?xml version="1.0" encoding="UTF-8"?>
<svg width="512px" height="512px" viewBox="0 0 512 512" version="1.1" xmlns="http://www.w3.org/2000/svg" xmlns:xlink="http://www.w3.org/1999/xlink">
    <!-- Generator: Sketch 53.1 (72631) - https://sketchapp.com -->
    <title>sun2</title>
    <desc>Created with Sketch.</desc>
    <g id="sun2" stroke="none" stroke-width="1" fill="none" fill-rule="evenodd" stroke-linecap="square">
        <path d="M256,7.68274333e-14 L256,222.148144 L256,7.68274333e-14 Z M265.865489,0.191465082 L258.112631,222.204283 L265.865489,0.191465082 Z M277.648632,0.917665899 L258.287145,222.220469 L277.648632,0.917665899 Z M287.462794,1.9408764 L260.389745,222.433162 L287.462794,1.9408764 Z M297.229837,3.3441069 L262.478211,222.757239 L297.229837,3.3441069 Z M308.834622,5.51171591 L262.647426,222.80539 L308.834622,5.51171591 Z M318.448462,7.73406949 L264.705962,223.283464 L318.448462,7.73406949 Z M329.827533,10.8783444 L264.877701,223.319671 L329.827533,10.8783444 Z M339.219553,13.9039602 L266.895191,223.949157 L339.219553,13.9039602 Z M348.487117,17.2917175 L268.876342,224.684877 L348.487117,17.2917175 Z M359.393977,21.8094869 L269.038187,224.751915 L359.393977,21.8094869 Z M368.342642,25.9671386 L270.959305,225.632568 L368.342642,25.9671386 Z M377.123236,30.468866 L272.830999,226.614035 L377.123236,30.468866 Z M387.392792,36.291746 L272.978039,226.709871 L387.392792,36.291746 Z M395.762245,41.5183162 L274.771694,227.827426 L395.762245,41.5183162 Z M405.500798,48.1914075 L274.925395,227.913031 L405.500798,48.1914075 Z M413.399374,54.1055162 L276.63132,229.160643 L413.399374,54.1055162 Z M421.062554,60.3216576 L278.268479,230.497009 L421.062554,60.3216576 Z M429.907995,68.1400958 L278.403325,230.608963 L429.907995,68.1400958 Z M437.019336,74.980664 L279.936877,232.063123 L437.019336,74.980664 Z M443.859904,82.0920048 L281.391037,233.596675 L443.859904,82.0920048 Z M451.678342,90.9374459 L281.502991,233.731521 L451.678342,90.9374459 Z M457.894484,98.6006256 L282.839357,235.36868 L457.894484,98.6006256 Z M463.808592,106.499202 L284.086969,237.074605 L463.808592,106.499202 Z M470.481684,116.237755 L284.172574,237.228306 L470.481684,116.237755 Z M475.708254,124.607208 L285.290129,239.021961 L475.708254,124.607208 Z M481.531134,134.876764 L285.385965,239.169001 L481.531134,134.876764 Z M486.032861,143.657358 L286.367432,241.040695 L486.032861,143.657358 Z M490.190513,152.606023 L287.248085,242.961813 L490.190513,152.606023 Z M494.708282,163.512883 L287.315123,243.123658 L494.708282,163.512883 Z M498.09604,172.780447 L288.050843,245.104809 L498.09604,172.780447 Z M501.121656,182.172467 L288.680329,247.122299 L501.121656,182.172467 Z M504.265931,193.551538 L288.716536,247.294038 L504.265931,193.551538 Z M506.488284,203.165378 L289.19461,249.352574 L506.488284,203.165378 Z M508.655893,214.770163 L289.242761,249.521789 L508.655893,214.770163 Z M510.059124,224.537206 L289.566838,251.610255 L510.059124,224.537206 Z M511.082334,234.351368 L289.779531,253.712855 L511.082334,234.351368 Z M511.808535,246.134511 L289.795717,253.887369 L511.808535,246.134511 Z M512,256 L289.851856,256 L512,256 Z M511.808535,265.865489 L289.795717,258.112631 L511.808535,265.865489 Z M511.082334,277.648632 L289.779531,258.287145 L511.082334,277.648632 Z M510.059124,287.462794 L289.566838,260.389745 L510.059124,287.462794 Z M508.655893,297.229837 L289.242761,262.478211 L508.655893,297.229837 Z M506.488284,308.834622 L289.19461,262.647426 L506.488284,308.834622 Z M504.265931,318.448462 L288.716536,264.705962 L504.265931,318.448462 Z M501.121656,329.827533 L288.680329,264.877701 L501.121656,329.827533 Z M498.09604,339.219553 L288.050843,266.895191 L498.09604,339.219553 Z M494.708282,348.487117 L287.315123,268.876342 L494.708282,348.487117 Z M490.190513,359.393977 L287.248085,269.038187 L490.190513,359.393977 Z M486.032861,368.342642 L286.367432,270.959305 L486.032861,368.342642 Z M481.531134,377.123236 L285.385965,272.830999 L481.531134,377.123236 Z M475.708254,387.392792 L285.290129,272.978039 L475.708254,387.392792 Z M470.481684,395.762245 L284.172574,274.771694 L470.481684,395.762245 Z M463.808592,405.500798 L284.086969,274.925395 L463.808592,405.500798 Z M457.894484,413.399374 L282.839357,276.63132 L457.894484,413.399374 Z M451.678342,421.062554 L281.502991,278.268479 L451.678342,421.062554 Z M443.859904,429.907995 L281.391037,278.403325 L443.859904,429.907995 Z M437.019336,437.019336 L279.936877,279.936877 L437.019336,437.019336 Z M429.907995,443.859904 L278.403325,281.391037 L429.907995,443.859904 Z M421.062554,451.678342 L278.268479,281.502991 L421.062554,451.678342 Z M413.399374,457.894484 L276.63132,282.839357 L413.399374,457.894484 Z M405.500798,463.808592 L274.925395,284.086969 L405.500798,463.808592 Z M395.762245,470.481684 L274.771694,284.172574 L395.762245,470.481684 Z M387.392792,475.708254 L272.978039,285.290129 L387.392792,475.708254 Z M377.123236,481.531134 L272.830999,285.385965 L377.123236,481.531134 Z M368.342642,486.032861 L270.959305,286.367432 L368.342642,486.032861 Z M359.393977,490.190513 L269.038187,287.248085 L359.393977,490.190513 Z M348.487117,494.708282 L268.876342,287.315123 L348.487117,494.708282 Z M339.219553,498.09604 L266.895191,288.050843 L339.219553,498.09604 Z M329.827533,501.121656 L264.877701,288.680329 L329.827533,501.121656 Z M318.448462,504.265931 L264.705962,288.716536 L318.448462,504.265931 Z M308.834622,506.488284 L262.647426,289.19461 L308.834622,506.488284 Z M297.229837,508.655893 L262.478211,289.242761 L297.229837,508.655893 Z M287.462794,510.059124 L260.389745,289.566838 L287.462794,510.059124 Z M277.648632,511.082334 L258.287145,289.779531 L277.648632,511.082334 Z M265.865489,511.808535 L258.112631,289.795717 L265.865489,511.808535 Z M256,512 L256,289.851856 L256,512 Z M246.134511,511.808535 L253.887369,289.795717 L246.134511,511.808535 Z M234.351368,511.082334 L253.712855,289.779531 L234.351368,511.082334 Z M224.537206,510.059124 L251.610255,289.566838 L224.537206,510.059124 Z M214.770163,508.655893 L249.521789,289.242761 L214.770163,508.655893 Z M203.165378,506.488284 L249.352574,289.19461 L203.165378,506.488284 Z M193.551538,504.265931 L247.294038,288.716536 L193.551538,504.265931 Z M182.172467,501.121656 L247.122299,288.680329 L182.172467,501.121656 Z M172.780447,498.09604 L245.104809,288.050843 L172.780447,498.09604 Z M163.512883,494.708282 L243.123658,287.315123 L163.512883,494.708282 Z M152.606023,490.190513 L242.961813,287.248085 L152.606023,490.190513 Z M143.657358,486.032861 L241.040695,286.367432 L143.657358,486.032861 Z M134.876764,481.531134 L239.169001,285.385965 L134.876764,481.531134 Z M124.607208,475.708254 L239.021961,285.290129 L124.607208,475.708254 Z M116.237755,470.481684 L237.228306,284.172574 L116.237755,470.481684 Z M106.499202,463.808592 L237.074605,284.086969 L106.499202,463.808592 Z M98.6006256,457.894484 L235.36868,282.839357 L98.6006256,457.894484 Z M90.9374459,451.678342 L233.731521,281.502991 L90.9374459,451.678342 Z M82.0920048,443.859904 L233.596675,281.391037 L82.0920048,443.859904 Z M74.980664,437.019336 L232.063123,279.936877 L74.980664,437.019336 Z M68.1400958,429.907995 L230.608963,278.403325 L68.1400958,429.907995 Z M60.3216576,421.062554 L230.497009,278.268479 L60.3216576,421.062554 Z M54.1055162,413.399374 L229.160643,276.63132 L54.1055162,413.399374 Z M48.1914075,405.500798 L227.913031,274.925395 L48.1914075,405.500798 Z M41.5183162,395.762245 L227.827426,274.771694 L41.5183162,395.762245 Z M36.291746,387.392792 L226.709871,272.978039 L36.291746,387.392792 Z M30.468866,377.123236 L226.614035,272.830999 L30.468866,377.123236 Z M25.9671386,368.342642 L225.632568,270.959305 L25.9671386,368.342642 Z M21.8094869,359.393977 L224.751915,269.038187 L21.8094869,359.393977 Z M17.2917175,348.487117 L224.684877,268.876342 L17.2917175,348.487117 Z M13.9039602,339.219553 L223.949157,266.895191 L13.9039602,339.219553 Z M10.8783444,329.827533 L223.319671,264.877701 L10.8783444,329.827533 Z M7.73406949,318.448462 L223.283464,264.705962 L7.73406949,318.448462 Z M5.51171591,308.834622 L222.80539,262.647426 L5.51171591,308.834622 Z M3.3441069,297.229837 L222.757239,262.478211 L3.3441069,297.229837 Z M1.9408764,287.462794 L222.433162,260.389745 L1.9408764,287.462794 Z M0.917665899,277.648632 L222.220469,258.287145 L0.917665899,277.648632 Z M0.191465082,265.865489 L222.204283,258.112631 L0.191465082,265.865489 Z M-1.16795462e-13,256 L222.148144,256 L-1.16795462e-13,256 Z M0.191465082,246.134511 L222.204283,253.887369 L0.191465082,246.134511 Z M0.917665899,234.351368 L222.220469,253.712855 L0.917665899,234.351368 Z M1.9408764,224.537206 L222.433162,251.610255 L1.9408764,224.537206 Z M3.3441069,214.770163 L222.757239,249.521789 L3.3441069,214.770163 Z M5.51171591,203.165378 L222.80539,249.352574 L5.51171591,203.165378 Z M7.73406949,193.551538 L223.283464,247.294038 L7.73406949,193.551538 Z M10.8783444,182.172467 L223.319671,247.122299 L10.8783444,182.172467 Z M13.9039602,172.780447 L223.949157,245.104809 L13.9039602,172.780447 Z M17.2917175,163.512883 L224.684877,243.123658 L17.2917175,163.512883 Z M21.8094869,152.606023 L224.751915,242.961813 L21.8094869,152.606023 Z M25.9671386,143.657358 L225.632568,241.040695 L25.9671386,143.657358 Z M30.468866,134.876764 L226.614035,239.169001 L30.468866,134.876764 Z M36.291746,124.607208 L226.709871,239.021961 L36.291746,124.607208 Z M41.5183162,116.237755 L227.827426,237.228306 L41.5183162,116.237755 Z M48.1914075,106.499202 L227.913031,237.074605 L48.1914075,106.499202 Z M54.1055162,98.6006256 L229.160643,235.36868 L54.1055162,98.6006256 Z M60.3216576,90.9374459 L230.497009,233.731521 L60.3216576,90.9374459 Z M68.1400958,82.0920048 L230.608963,233.596675 L68.1400958,82.0920048 Z M74.980664,74.980664 L232.063123,232.063123 L74.980664,74.980664 Z M82.0920048,68.1400958 L233.596675,230.608963 L82.0920048,68.1400958 Z M90.9374459,60.3216576 L233.731521,230.497009 L90.9374459,60.3216576 Z M98.6006256,54.1055162 L235.36868,229.160643 L98.6006256,54.1055162 Z M106.499202,48.1914075 L237.074605,227.913031 L106.499202,48.1914075 Z M116.237755,41.5183162 L237.228306,227.827426 L116.237755,41.5183162 Z M124.607208,36.291746 L239.021961,226.709871 L124.607208,36.291746 Z M134.876764,30.468866 L239.169001,226.614035 L134.876764,30.468866 Z M143.657358,25.9671386 L241.040695,225.632568 L143.657358,25.9671386 Z M152.606023,21.8094869 L242.961813,224.751915 L152.606023,21.8094869 Z M163.512883,17.2917175 L243.123658,224.684877 L163.512883,17.2917175 Z M172.780447,13.9039602 L245.104809,223.949157 L172.780447,13.9039602 Z M182.172467,10.8783444 L247.122299,223.319671 L182.172467,10.8783444 Z M193.551538,7.73406949 L247.294038,223.283464 L193.551538,7.73406949 Z M203.165378,5.51171591 L249.352574,222.80539 L203.165378,5.51171591 Z M214.770163,3.3441069 L249.521789,222.757239 L214.770163,3.3441069 Z M224.537206,1.9408764 L251.610255,222.433162 L224.537206,1.9408764 Z M234.351368,0.917665899 L253.712855,222.220469 L234.351368,0.917665899 Z M246.134511,0.191465082 L253.887369,222.204283 L246.134511,0.191465082 Z" id="Line-5" stroke="#444444" stroke-width="2.5"></path>
    </g>
</svg>