<?xml version="1.0" encoding="UTF-8"?>
<svg width="44px" height="44px" viewBox="0 0 44 44" version="1.1" xmlns="http://www.w3.org/2000/svg" xmlns:xlink="http://www.w3.org/1999/xlink">
    <!-- Generator: Sketch 53.1 (72631) - https://sketchapp.com -->
    <title>email</title>
    <desc>Created with Sketch.</desc>
    <g id="email" stroke="none" stroke-width="1" fill="none" fill-rule="evenodd">
        <circle id="Oval" fill="white" cx="22" cy="22" r="22"></circle>
        <path id="@" fill="#222" fill-rule="nonzero" d="M22.584,10 C24.976012,10 27.1036574,10.4896618 28.967,11.469 C30.8303427,12.4483382 32.2819948,13.7959914 33.322,15.512 C34.3620052,17.2280086 34.882,19.1693225 34.882,21.336 C34.882,22.861341 34.6610022,24.1743278 34.219,25.275 C33.7769978,26.3756722 33.1573373,27.2119971 32.36,27.784 C31.5626627,28.3560029 30.626672,28.642 29.552,28.642 C28.6679956,28.642 27.9226697,28.4513352 27.316,28.07 C26.7093303,27.6886648 26.2673347,27.1253371 25.99,26.38 C25.0539953,27.8880075 23.5720101,28.642 21.544,28.642 C20.4346611,28.642 19.4206713,28.3646694 18.502,27.81 C17.5833287,27.2553306 16.8596693,26.4796717 16.331,25.483 C15.8023307,24.4863284 15.538,23.3466731 15.538,22.064 C15.538,20.7986603 15.8023307,19.6676716 16.331,18.671 C16.8596693,17.6743284 17.5789955,16.8986694 18.489,16.344 C19.3990046,15.7893306 20.4173277,15.512 21.544,15.512 C23.2600086,15.512 24.5946619,16.0839943 25.548,17.228 L25.548,15.694 L29.084,15.694 L29.084,24.118 C29.084,25.2273389 29.4999958,25.782 30.332,25.782 C30.9386697,25.782 31.4109983,25.4180036 31.749,24.69 C32.0870017,23.9619964 32.256,22.8613407 32.256,21.388 C32.256,19.6373246 31.853004,18.0903401 31.047,16.747 C30.240996,15.4036599 29.105674,14.3550038 27.641,13.601 C26.176326,12.8469962 24.4906762,12.47 22.584,12.47 C20.6773238,12.47 18.991674,12.872996 17.527,13.679 C16.062326,14.485004 14.927004,15.5986596 14.121,17.02 C13.314996,18.4413404 12.912,20.0533243 12.912,21.856 C12.912,23.6933425 13.3106627,25.3269928 14.108,26.757 C14.9053373,28.1870071 16.0276594,29.304996 17.475,30.111 C18.9223406,30.917004 20.5906572,31.32 22.48,31.32 C24.3520094,31.32 26.0593256,30.9386705 27.602,30.176 L28.434,32.568 C27.6539961,32.9666687 26.7310053,33.2743323 25.665,33.491 C24.5989947,33.7076678 23.5373386,33.816 22.48,33.816 C20.0186544,33.816 17.8433428,33.3003385 15.954,32.269 C14.0646572,31.2376615 12.6000052,29.8120091 11.56,27.992 C10.5199948,26.1719909 10,24.126678 10,21.856 C10,19.6026554 10.5243281,17.5746757 11.573,15.772 C12.6216719,13.9693243 14.0993238,12.5566718 16.006,11.534 C17.9126762,10.5113282 20.1053209,10 22.584,10 Z M22.35,25.652 C23.3033381,25.652 24.0833303,25.3356698 24.69,24.703 C25.2966697,24.0703302 25.6,23.1906723 25.6,22.064 C25.6,20.9546611 25.2966697,20.0880031 24.69,19.464 C24.0833303,18.8399969 23.3033381,18.528 22.35,18.528 C21.3793285,18.528 20.5993363,18.8443302 20.01,19.477 C19.4206637,20.1096698 19.126,20.9719945 19.126,22.064 C19.126,23.1733389 19.4206637,24.0486635 20.01,24.69 C20.5993363,25.3313365 21.3793285,25.652 22.35,25.652 Z"></path>
    </g>
</svg>